<svg xmlns="http://www.w3.org/2000/svg" width="64" height="64" viewBox="0 0 64 64"><g transform="translate(-833 -3247)"><circle data-name="Ellipse 34" cx="32" cy="32" r="32" transform="translate(833 3247)" fill="#3b5999"/><path data-name="Path 498" d="M871.467 3269.025h-3.109a1.252 1.252 0 0 0-1.415 1.4c-.007.927 0 1.854 0 2.781 0 .075.011.151.019.255h4.609l-.53 5.163h-4.09v14.592h-6.068v-14.58h-2.881v-5.159h2.868v-.417c.012-1.217-.043-2.439.052-3.65a5.5 5.5 0 0 1 2.651-4.592 5.98 5.98 0 0 1 3.008-.8c1.574-.029 3.149 0 4.724 0a1.317 1.317 0 0 1 .162.02z" fill="#fff"/></g></svg>