<svg xmlns="http://www.w3.org/2000/svg" width="64" height="64" viewBox="0 0 64 64"><g transform="translate(-582 -3247)"><circle data-name="Ellipse 33" cx="32" cy="32" r="32" transform="translate(582 3247)" fill="#0077b5"/><g data-name="Group 329" fill="#fff"><path data-name="Path 495" d="M617.053 3274.172a6.339 6.339 0 0 1 4.659-1.71 6.862 6.862 0 0 1 2.954.706 5.11 5.11 0 0 1 2.707 3.932 13.07 13.07 0 0 1 .25 2.356c.047 3.047.053 6.094.07 9.141.005.888-.107 1-1.007 1h-3.963c-.72-.005-.825-.116-.826-.839 0-2.536 0-5.072-.006-7.609a13.3 13.3 0 0 0-.091-1.474c-.151-1.305-.779-1.945-1.909-1.976a2.158 2.158 0 0 0-2.528 1.913 15.423 15.423 0 0 0-.139 2.105c-.017 2.289-.007 4.579-.007 6.869 0 .866-.152 1.019-1.006 1.019h-3.8c-.827 0-.97-.136-.97-.938v-14.848c0-.808.144-.947.957-.947h3.646c.834 0 .971.136.99.977-.004.065.004.139.019.323z"/><path data-name="Path 496" d="M603.397 3281.223v-7.4c0-.811.147-.958.95-.958h3.963c.652 0 .865.2.865.842q.008 7.53 0 15.061c0 .624-.206.824-.828.827q-2.034.012-4.069 0c-.73 0-.883-.169-.883-.921q-.001-3.725.002-7.451z"/><path data-name="Path 497" d="M609.567 3268.271a3.238 3.238 0 0 1-3.322 3.3 3.314 3.314 0 0 1-3.245-3.291 3.256 3.256 0 0 1 3.293-3.276 3.2 3.2 0 0 1 3.274 3.267z"/></g></g></svg>