<svg xmlns="http://www.w3.org/2000/svg" width="64" height="64" viewBox="0 0 64 64"><g transform="translate(-1077 -3247)"><circle data-name="Ellipse 35" cx="32" cy="32" r="32" transform="translate(1077 3247)" fill="#2cb34c"/><g fill="#fff"><path data-name="Path 499" d="M1123.758 3284.938c-.056.281-.107.563-.168.843a6.429 6.429 0 0 1-1.124 2.471 1 1 0 0 0-.212.768c.129 1.11.237 2.222.353 3.333v.155c-.1-.04-.182-.069-.262-.1-1-.432-1.995-.871-3-1.291a.677.677 0 0 0-.467-.008 10.1 10.1 0 0 1-8.969-.44 7.362 7.362 0 0 1-3.78-4.6 6.31 6.31 0 0 1 .523-4.791 8.184 8.184 0 0 1 4.847-3.97 10.038 10.038 0 0 1 7.413.3 7.815 7.815 0 0 1 4.377 4.351 12.5 12.5 0 0 1 .417 1.644c.022.088.033.179.049.268zm-5.937-5.194a1.271 1.271 0 1 0 1.285 1.274 1.291 1.291 0 0 0-1.285-1.274zm-4.745 1.283a1.265 1.265 0 1 0-1.263 1.261 1.277 1.277 0 0 0 1.263-1.262z"/><path data-name="Path 500" d="M1118.717 3276.393c-.706-.166-1.385-.374-2.08-.481a10.778 10.778 0 0 0-8.061 1.767 8.062 8.062 0 0 0-3.633 5.808 13.486 13.486 0 0 0 .05 2.058c0 .083.023.164.043.3a10.1 10.1 0 0 1-1.1-.2c-.819-.243-1.625-.528-2.442-.78a.689.689 0 0 0-.437.005c-1.371.581-2.735 1.176-4.1 1.768-.093.04-.187.078-.329.137.051-.514.1-.99.146-1.465.12-1.158.25-2.315.355-3.474a.762.762 0 0 0-.149-.476 9.087 9.087 0 0 1-1.7-3.817 8.4 8.4 0 0 1 .882-5.655 11.084 11.084 0 0 1 6.532-5.266 13.132 13.132 0 0 1 5.4-.625 12.238 12.238 0 0 1 7.883 3.537 8.829 8.829 0 0 1 2.754 6.728 1.19 1.19 0 0 0-.014.131zm-14.088-4.814a1.676 1.676 0 1 0-1.678 1.668 1.686 1.686 0 0 0 1.677-1.668zm7.954 0a1.673 1.673 0 0 0-1.656-1.683 1.677 1.677 0 1 0-.014 3.353 1.675 1.675 0 0 0 1.67-1.672z"/></g></g></svg>