<svg xmlns="http://www.w3.org/2000/svg" width="339.492" height="34.922" viewBox="0 0 339.492 34.922">
  <g id="logo" transform="translate(-27.697 -38.291)">
    <g id="Group_350" data-name="Group 350" transform="translate(72.366 38.296)">
      <path id="Path_573" data-name="Path 573" d="M206.722,55.984v-.4h.46a1.59,1.59,0,0,0,.922-.229,1.335,1.335,0,0,0,.473-.617,6.745,6.745,0,0,0,.093-1.531V42.592a6.33,6.33,0,0,0-.114-1.574,1.144,1.144,0,0,0-.452-.558,1.6,1.6,0,0,0-.922-.237h-.46v-.4H212.9a8.578,8.578,0,0,1,3.978.791,6.365,6.365,0,0,1,2.794,2.927,9.958,9.958,0,0,1,.952,4.42,10.151,10.151,0,0,1-.466,3.137,7.547,7.547,0,0,1-1.211,2.374,6.118,6.118,0,0,1-1.718,1.5,8.18,8.18,0,0,1-2.375.882,10.454,10.454,0,0,1-1.953.131h-6.177m5.263-15.252v12.6a5.026,5.026,0,0,0,.081,1.216.632.632,0,0,0,.273.351,1.481,1.481,0,0,0,.79.177,2.9,2.9,0,0,0,2.589-1.361,10.429,10.429,0,0,0,1.219-5.682,12.356,12.356,0,0,0-.829-4.966,3.946,3.946,0,0,0-1.7-1.972,5.708,5.708,0,0,0-2.426-.358" transform="translate(-206.722 -39.442)" fill="#fff"/>
      <path id="Path_574" data-name="Path 574" d="M268.839,40.766v6.571h.278a2.1,2.1,0,0,0,1.93-.971,6.643,6.643,0,0,0,.765-2.86h.371v8.5h-.371a7.208,7.208,0,0,0-.522-2.262,2.506,2.506,0,0,0-.924-1.189,3.088,3.088,0,0,0-1.527-.309v4.527a7.449,7.449,0,0,0,.1,1.619.963.963,0,0,0,.362.487,1.477,1.477,0,0,0,.861.192h.824a4.528,4.528,0,0,0,3.11-1.035,6.028,6.028,0,0,0,1.681-3.185h.373l-.62,5.132H263.575v-.4h.46a1.666,1.666,0,0,0,.972-.259,1.085,1.085,0,0,0,.408-.587,6.011,6.011,0,0,0,.113-1.531V42.592a10.158,10.158,0,0,0-.052-1.368,1.2,1.2,0,0,0-.379-.657,1.534,1.534,0,0,0-1.063-.344h-.46v-.4h11.58V44.6h-.372a6.386,6.386,0,0,0-.829-2.5,3.11,3.11,0,0,0-1.515-1.116,6.978,6.978,0,0,0-2.144-.218h-1.455" transform="translate(-249.39 -39.442)" fill="#fff"/>
      <path id="Path_575" data-name="Path 575" d="M1300.124,40.766v6.571h.278a2.1,2.1,0,0,0,1.929-.971,6.643,6.643,0,0,0,.765-2.86h.371v8.5h-.371a7.189,7.189,0,0,0-.523-2.262,2.505,2.505,0,0,0-.923-1.189,3.093,3.093,0,0,0-1.527-.309v4.527a7.586,7.586,0,0,0,.1,1.619.97.97,0,0,0,.363.487,1.479,1.479,0,0,0,.862.192h.823a4.524,4.524,0,0,0,3.109-1.035,6.025,6.025,0,0,0,1.682-3.185h.373l-.622,5.132h-11.951v-.4h.461a1.664,1.664,0,0,0,.972-.259,1.091,1.091,0,0,0,.409-.587,6.043,6.043,0,0,0,.113-1.531V42.592a9.866,9.866,0,0,0-.053-1.368,1.2,1.2,0,0,0-.377-.657,1.535,1.535,0,0,0-1.063-.344h-.461v-.4h11.581V44.6h-.374a6.409,6.409,0,0,0-.828-2.5,3.114,3.114,0,0,0-1.516-1.116,6.986,6.986,0,0,0-2.145-.218h-1.454" transform="translate(-1023.357 -39.442)" fill="#fff"/>
      <path id="Path_576" data-name="Path 576" d="M327.47,39.819l-8.141,15.252h2.632a8.369,8.369,0,0,0,2.61-.275,4.535,4.535,0,0,0,2.1-1.578,7.034,7.034,0,0,0,1.214-3.073h.4l-.56,5.838H315.085L323.25,40.7h-2.057a9.207,9.207,0,0,0-1.576.083,3.633,3.633,0,0,0-1.348.613,3.6,3.6,0,0,0-1.041,1.224,6.944,6.944,0,0,0-.651,1.928H316.2l.371-4.725h10.9" transform="translate(-288.047 -39.442)" fill="#fff"/>
      <path id="Path_577" data-name="Path 577" d="M377.556,50.26h-4.835l-.606,1.591a4.074,4.074,0,0,0-.285,1.323A1.166,1.166,0,0,0,372.3,54.2a3.4,3.4,0,0,0,1.353.3v.4h-4.588v-.4a1.977,1.977,0,0,0,1.22-.741,10.377,10.377,0,0,0,1.18-2.481L376.4,38.368h.193l4.945,13.268a8.8,8.8,0,0,0,1.171,2.417,1.454,1.454,0,0,0,.978.443v.4h-6.645v-.4h.277a1.808,1.808,0,0,0,1.131-.273.7.7,0,0,0,.222-.566,1.722,1.722,0,0,0-.061-.454c-.01-.071-.116-.378-.306-.908l-.746-2.035m-.326-.877-2.049-5.55-2.124,5.55h4.173" transform="translate(-328.557 -38.353)" fill="#fff"/>
      <path id="Path_578" data-name="Path 578" d="M434.655,39.819l6.8,9.926V42.887A3.849,3.849,0,0,0,441.1,40.9a1.8,1.8,0,0,0-1.629-.679v-.4H444v.4a2.959,2.959,0,0,0-1.166.344,1.374,1.374,0,0,0-.466.69,5.628,5.628,0,0,0-.164,1.63V56.349h-.342l-9.323-13.437v10.3a2.5,2.5,0,0,0,.552,1.883,1.855,1.855,0,0,0,1.26.494h.33v.4h-4.926v-.4a2.02,2.02,0,0,0,1.594-.553,2.866,2.866,0,0,0,.449-1.824V41.839l-.323-.468a2.969,2.969,0,0,0-.774-.906,1.949,1.949,0,0,0-.966-.243v-.4h4.923" transform="translate(-374.089 -39.442)" fill="#fff"/>
      <path id="Path_579" data-name="Path 579" d="M530.022,38.368l.123,5.4h-.4a5.85,5.85,0,0,0-1.462-3.258,3.454,3.454,0,0,0-2.521-1.236,2.177,2.177,0,0,0-1.662.653,2.12,2.12,0,0,0-.611,1.487,2.044,2.044,0,0,0,.216.955,3.637,3.637,0,0,0,.948,1.1,19.821,19.821,0,0,0,2.208,1.4,9.811,9.811,0,0,1,3.259,2.628,5.185,5.185,0,0,1-.523,6.312,4.821,4.821,0,0,1-4.68,1.292,8.672,8.672,0,0,1-1.465-.582,1.932,1.932,0,0,0-.808-.243.878.878,0,0,0-.559.248,1.677,1.677,0,0,0-.482.736h-.372V49.168h.372a7.308,7.308,0,0,0,1.742,3.906,3.8,3.8,0,0,0,2.771,1.348,2.417,2.417,0,0,0,2.515-2.414,2.52,2.52,0,0,0-.259-1.112,3.4,3.4,0,0,0-.79-1.014,12.151,12.151,0,0,0-1.871-1.253A15.362,15.362,0,0,1,523,46.79a5.5,5.5,0,0,1-1.269-1.7,5.064,5.064,0,0,1,.773-5.361,3.927,3.927,0,0,1,3.06-1.357,4.586,4.586,0,0,1,1.309.187,6.2,6.2,0,0,1,1.168.524,2.5,2.5,0,0,0,.965.382.508.508,0,0,0,.42-.189,2.377,2.377,0,0,0,.284-.9h.31" transform="translate(-442.757 -38.353)" fill="#fff"/>
      <path id="Path_580" data-name="Path 580" d="M960.528,38.368l.123,5.4h-.4a5.858,5.858,0,0,0-1.461-3.258,3.459,3.459,0,0,0-2.524-1.236,2.171,2.171,0,0,0-1.659.653,2.118,2.118,0,0,0-.612,1.487,2.055,2.055,0,0,0,.215.955,3.655,3.655,0,0,0,.949,1.1,19.674,19.674,0,0,0,2.208,1.4,9.8,9.8,0,0,1,3.259,2.628,5.183,5.183,0,0,1-.522,6.312,4.508,4.508,0,0,1-3.444,1.452,4.553,4.553,0,0,1-1.237-.16,8.719,8.719,0,0,1-1.464-.582,1.928,1.928,0,0,0-.808-.243.877.877,0,0,0-.559.248,1.68,1.68,0,0,0-.482.736h-.372V49.168h.372a7.3,7.3,0,0,0,1.741,3.906,3.8,3.8,0,0,0,2.772,1.348,2.416,2.416,0,0,0,2.514-2.414,2.533,2.533,0,0,0-.257-1.112,3.467,3.467,0,0,0-.791-1.014,12.253,12.253,0,0,0-1.871-1.253,15.339,15.339,0,0,1-2.708-1.839,5.525,5.525,0,0,1-1.27-1.7,5.066,5.066,0,0,1,.774-5.361,3.928,3.928,0,0,1,3.061-1.357,4.591,4.591,0,0,1,1.308.187,6.238,6.238,0,0,1,1.168.524,2.507,2.507,0,0,0,.966.382.508.508,0,0,0,.42-.189,2.39,2.39,0,0,0,.284-.9h.31" transform="translate(-765.847 -38.353)" fill="#fff"/>
      <path id="Path_581" data-name="Path 581" d="M1004.58,38.368l.124,5.4h-.4a5.848,5.848,0,0,0-1.463-3.258,3.454,3.454,0,0,0-2.522-1.236,2.177,2.177,0,0,0-1.662.653,2.126,2.126,0,0,0-.61,1.487,2.057,2.057,0,0,0,.215.955,3.624,3.624,0,0,0,.948,1.1,19.859,19.859,0,0,0,2.208,1.4,9.809,9.809,0,0,1,3.26,2.628,5.184,5.184,0,0,1-.524,6.312,4.821,4.821,0,0,1-4.68,1.292,8.667,8.667,0,0,1-1.464-.582,1.936,1.936,0,0,0-.809-.243.877.877,0,0,0-.559.248,1.684,1.684,0,0,0-.483.736h-.37V49.168h.37a7.324,7.324,0,0,0,1.742,3.906,3.8,3.8,0,0,0,2.773,1.348,2.418,2.418,0,0,0,2.515-2.414,2.521,2.521,0,0,0-.26-1.112,3.384,3.384,0,0,0-.789-1.014,12.154,12.154,0,0,0-1.873-1.253,15.386,15.386,0,0,1-2.707-1.839,5.486,5.486,0,0,1-1.268-1.7,5.071,5.071,0,0,1,.773-5.361,3.927,3.927,0,0,1,3.06-1.357,4.587,4.587,0,0,1,1.308.187,6.219,6.219,0,0,1,1.167.524,2.517,2.517,0,0,0,.966.382.507.507,0,0,0,.42-.189,2.37,2.37,0,0,0,.283-.9h.31" transform="translate(-798.908 -38.353)" fill="#fff"/>
      <path id="Path_582" data-name="Path 582" d="M1358.161,38.368l.125,5.4h-.4a5.841,5.841,0,0,0-1.463-3.258,3.453,3.453,0,0,0-2.522-1.236,2.174,2.174,0,0,0-1.66.653,2.119,2.119,0,0,0-.612,1.487,2.038,2.038,0,0,0,.216.955,3.632,3.632,0,0,0,.948,1.1,19.8,19.8,0,0,0,2.207,1.4,9.814,9.814,0,0,1,3.261,2.628,5.186,5.186,0,0,1-.523,6.312,4.823,4.823,0,0,1-4.681,1.292,8.72,8.72,0,0,1-1.465-.582,1.931,1.931,0,0,0-.807-.243.872.872,0,0,0-.561.248,1.668,1.668,0,0,0-.482.736h-.371V49.168h.371a7.308,7.308,0,0,0,1.742,3.906,3.794,3.794,0,0,0,2.771,1.348,2.418,2.418,0,0,0,2.514-2.414,2.514,2.514,0,0,0-.259-1.112,3.346,3.346,0,0,0-.79-1.014,12.046,12.046,0,0,0-1.87-1.253,15.359,15.359,0,0,1-2.708-1.839,5.513,5.513,0,0,1-1.269-1.7,5.061,5.061,0,0,1,.773-5.361,3.924,3.924,0,0,1,3.059-1.357,4.577,4.577,0,0,1,1.309.187,6.118,6.118,0,0,1,1.168.524,2.506,2.506,0,0,0,.967.382.5.5,0,0,0,.418-.189,2.37,2.37,0,0,0,.286-.9h.307" transform="translate(-1064.268 -38.353)" fill="#fff"/>
      <path id="Path_583" data-name="Path 583" d="M567.618,48.213v5a6.142,6.142,0,0,0,.119,1.577,1.187,1.187,0,0,0,.457.559,1.586,1.586,0,0,0,.922.241h.454v.4h-7.213v-.4h.46a1.647,1.647,0,0,0,.968-.259,1.08,1.08,0,0,0,.41-.587,5.931,5.931,0,0,0,.111-1.531V42.592a6.365,6.365,0,0,0-.111-1.574,1.142,1.142,0,0,0-.457-.558,1.6,1.6,0,0,0-.922-.237h-.46v-.4h7.213v.4h-.454a1.622,1.622,0,0,0-.968.258,1.132,1.132,0,0,0-.416.585,5.973,5.973,0,0,0-.113,1.526v4.563h4.863V42.592a6.4,6.4,0,0,0-.113-1.574,1.146,1.146,0,0,0-.459-.558,1.631,1.631,0,0,0-.929-.237h-.45v-.4h7.214v.4H577.3a1.6,1.6,0,0,0-.971.258,1.149,1.149,0,0,0-.42.585,6.024,6.024,0,0,0-.11,1.526V53.208a6.5,6.5,0,0,0,.11,1.577,1.168,1.168,0,0,0,.461.559,1.634,1.634,0,0,0,.931.241h.449v.4h-7.214v-.4h.45a1.629,1.629,0,0,0,.969-.259,1.127,1.127,0,0,0,.419-.587,5.962,5.962,0,0,0,.113-1.531v-5h-4.863" transform="translate(-473.622 -39.442)" fill="#fff"/>
      <path id="Path_584" data-name="Path 584" d="M635.052,55.586v.4h-7.214v-.4h.459a1.657,1.657,0,0,0,.971-.259,1.086,1.086,0,0,0,.409-.587,6.079,6.079,0,0,0,.11-1.531V42.592a6.525,6.525,0,0,0-.11-1.574,1.171,1.171,0,0,0-.453-.558,1.621,1.621,0,0,0-.927-.237h-.459v-.4h7.214v.4H634.6a1.621,1.621,0,0,0-.966.258,1.111,1.111,0,0,0-.416.585,5.9,5.9,0,0,0-.113,1.526V53.208a6.1,6.1,0,0,0,.118,1.577,1.185,1.185,0,0,0,.457.559,1.581,1.581,0,0,0,.919.241h.457" transform="translate(-522.765 -39.442)" fill="#fff"/>
      <path id="Path_585" data-name="Path 585" d="M1164.948,55.586v.4h-7.212v-.4h.459a1.654,1.654,0,0,0,.97-.259,1.08,1.08,0,0,0,.409-.587,6.035,6.035,0,0,0,.11-1.531V42.592a6.477,6.477,0,0,0-.11-1.574,1.158,1.158,0,0,0-.453-.558,1.613,1.613,0,0,0-.926-.237h-.459v-.4h7.212v.4h-.455a1.618,1.618,0,0,0-.966.258,1.1,1.1,0,0,0-.416.585,5.829,5.829,0,0,0-.113,1.526V53.208a6.149,6.149,0,0,0,.117,1.577,1.191,1.191,0,0,0,.457.559,1.582,1.582,0,0,0,.92.241h.455" transform="translate(-920.448 -39.442)" fill="#fff"/>
      <path id="Path_586" data-name="Path 586" d="M664.757,48.613v4.564a5.61,5.61,0,0,0,.14,1.648,1.108,1.108,0,0,0,.494.556,2.933,2.933,0,0,0,1.318.2v.4h-7.155v-.4a2.866,2.866,0,0,0,1.325-.212,1.158,1.158,0,0,0,.488-.552,5.656,5.656,0,0,0,.14-1.645V42.632a5.78,5.78,0,0,0-.14-1.656,1.1,1.1,0,0,0-.494-.549,2.925,2.925,0,0,0-1.318-.2v-.4h6.426a12,12,0,0,1,3.667.408,3.757,3.757,0,0,1,1.9,1.494,4.451,4.451,0,0,1,.735,2.548,4.112,4.112,0,0,1-1.092,2.945,4.233,4.233,0,0,1-1.95,1.117l3.3,5.478a8.257,8.257,0,0,0,.933,1.331,1.6,1.6,0,0,0,.975.407v.438h-4.343l-4.439-7.371h-.909m0-7.881V47.7h.579a5.664,5.664,0,0,0,2.125-.3,2.211,2.211,0,0,0,1.1-1.078,4.423,4.423,0,0,0,.4-2.04,4.058,4.058,0,0,0-.737-2.681,2.972,2.972,0,0,0-2.382-.868h-1.089" transform="translate(-546.568 -39.442)" fill="#fff"/>
      <path id="Path_587" data-name="Path 587" d="M728.481,50.26h-4.831l-.608,1.591a4.057,4.057,0,0,0-.286,1.323,1.17,1.17,0,0,0,.469,1.026,3.39,3.39,0,0,0,1.352.3v.4H719.99v-.4a1.982,1.982,0,0,0,1.221-.741,10.4,10.4,0,0,0,1.179-2.481l4.935-12.907h.192l4.948,13.268a8.686,8.686,0,0,0,1.174,2.417,1.438,1.438,0,0,0,.972.443v.4h-6.642v-.4h.274a1.808,1.808,0,0,0,1.13-.273.709.709,0,0,0,.224-.566,1.863,1.863,0,0,0-.061-.454c-.015-.071-.119-.378-.31-.908l-.746-2.035m-.325-.877-2.049-5.55-2.125,5.55h4.174" transform="translate(-591.924 -38.353)" fill="#fff"/>
      <path id="Path_588" data-name="Path 588" d="M898.086,50.26h-4.832l-.606,1.591a4.048,4.048,0,0,0-.285,1.323,1.168,1.168,0,0,0,.467,1.026,3.392,3.392,0,0,0,1.351.3v.4H889.6v-.4a1.976,1.976,0,0,0,1.221-.741A10.4,10.4,0,0,0,892,51.275l4.933-12.907h.189l4.949,13.268a8.737,8.737,0,0,0,1.173,2.417,1.442,1.442,0,0,0,.973.443v.4h-6.642v-.4h.273a1.811,1.811,0,0,0,1.132-.273.709.709,0,0,0,.223-.566,1.846,1.846,0,0,0-.061-.454c-.014-.071-.118-.378-.309-.908l-.746-2.035m-.325-.877-2.049-5.55-2.123,5.55h4.171" transform="translate(-719.212 -38.353)" fill="#fff"/>
      <path id="Path_589" data-name="Path 589" d="M1198.46,50.26h-4.831l-.61,1.591a4.089,4.089,0,0,0-.285,1.323,1.168,1.168,0,0,0,.469,1.026,3.391,3.391,0,0,0,1.353.3v.4h-4.587v-.4a1.971,1.971,0,0,0,1.221-.741,10.408,10.408,0,0,0,1.182-2.481l4.934-12.907h.19l4.949,13.268a8.729,8.729,0,0,0,1.173,2.417,1.441,1.441,0,0,0,.972.443v.4h-6.642v-.4h.274a1.805,1.805,0,0,0,1.13-.273.707.707,0,0,0,.226-.566,1.788,1.788,0,0,0-.062-.454c-.014-.071-.118-.378-.309-.908l-.746-2.035m-.324-.877-2.049-5.55-2.124,5.55h4.172" transform="translate(-944.638 -38.353)" fill="#fff"/>
      <path id="Path_590" data-name="Path 590" d="M814.779,47.038h4.052v.439a1.988,1.988,0,0,0-1.068.48,6.212,6.212,0,0,0-1.009,1.7,21.7,21.7,0,0,1-1.747,2.981,10.433,10.433,0,0,0,1.627,1.451,1.557,1.557,0,0,0,.852.277c.484,0,.924-.367,1.314-1.116l.372.252a7.35,7.35,0,0,1-1.713,2.649,2.342,2.342,0,0,1-1.573.589,2.928,2.928,0,0,1-1.453-.384,7.343,7.343,0,0,1-1.668-1.448,9.789,9.789,0,0,1-2.3,1.4,5.98,5.98,0,0,1-2.236.431,3.818,3.818,0,0,1-2.951-1.188,4,4,0,0,1-1.1-2.786,4.574,4.574,0,0,1,1.055-3.009,8.559,8.559,0,0,1,3.044-2.214,10.862,10.862,0,0,1-.378-1.463,8.045,8.045,0,0,1-.127-1.385,4.426,4.426,0,0,1,1.107-3.073,3.6,3.6,0,0,1,2.808-1.227,2.923,2.923,0,0,1,2.188.816,2.609,2.609,0,0,1,.806,1.895,3.272,3.272,0,0,1-.823,2.233,7.359,7.359,0,0,1-2.617,1.7A26.651,26.651,0,0,0,814.472,52a5.919,5.919,0,0,0,1.423-3.283,1.231,1.231,0,0,0-.287-.83,1.216,1.216,0,0,0-.829-.412v-.439m-6.22,1.244a3.1,3.1,0,0,0-1.119.829,2.414,2.414,0,0,0-.467,1.441,4.809,4.809,0,0,0,.536,2.157,4.717,4.717,0,0,0,1.288,1.657,2.45,2.45,0,0,0,1.5.592,2.237,2.237,0,0,0,.841-.191,5.28,5.28,0,0,0,1.012-.57,22.9,22.9,0,0,1-3.591-5.914m2.354-1.938a3.2,3.2,0,0,0,1.378-.955,2.173,2.173,0,0,0,.348-1.24,3.867,3.867,0,0,0-.579-2.175,1.107,1.107,0,0,0-.939-.591.969.969,0,0,0-.788.424,1.878,1.878,0,0,0-.323,1.155,5.034,5.034,0,0,0,.156,1.206,18.625,18.625,0,0,0,.747,2.175" transform="translate(-655.111 -39.877)" fill="#fff"/>
      <path id="Path_591" data-name="Path 591" d="M1046.1,38.864a6.223,6.223,0,0,1,5.3,2.254,8.9,8.9,0,0,1,2.04,6,9.693,9.693,0,0,1-1.515,5.415,6.875,6.875,0,0,1-11.4.141,9.545,9.545,0,0,1-1.6-5.542,8.867,8.867,0,0,1,2.068-6,6.062,6.062,0,0,1,5.1-2.259m.12.75c-1.249,0-2.193.756-2.848,2.266a14.094,14.094,0,0,0-.8,5.343q0,4.134,1.23,6.116a2.67,2.67,0,0,0,2.391,1.381,2.552,2.552,0,0,0,1.735-.6,5.057,5.057,0,0,0,1.378-2.433,16.042,16.042,0,0,0,.493-4.369,17.006,17.006,0,0,0-.506-4.8,4.864,4.864,0,0,0-1.281-2.249,2.7,2.7,0,0,0-1.8-.655" transform="translate(-831.29 -38.719)" fill="#fff"/>
      <path id="Path_592" data-name="Path 592" d="M1114.32,38.309v5.615h-.352a6.3,6.3,0,0,0-1.665-3.385,3.859,3.859,0,0,0-2.752-1.177,3.647,3.647,0,0,0-2.359.876,4.994,4.994,0,0,0-1.568,2.278,11.987,11.987,0,0,0-.639,4.012,15.681,15.681,0,0,0,.463,3.957,5.463,5.463,0,0,0,1.452,2.7,3.623,3.623,0,0,0,2.566.91,4.375,4.375,0,0,0,2.366-.668,8.778,8.778,0,0,0,2.263-2.3v1.393a7.674,7.674,0,0,1-2.4,2.07,6.33,6.33,0,0,1-2.914.64,7.3,7.3,0,0,1-3.887-1.042,6.84,6.84,0,0,1-2.629-2.978,9.572,9.572,0,0,1-.926-4.144,9.751,9.751,0,0,1,1.031-4.39,8.039,8.039,0,0,1,2.776-3.22,6.65,6.65,0,0,1,3.706-1.146,7.272,7.272,0,0,1,3.055.739,4.3,4.3,0,0,0,1.188.429.714.714,0,0,0,.564-.283,1.68,1.68,0,0,0,.31-.885h.351" transform="translate(-878.122 -38.309)" fill="#fff"/>
      <path id="Path_593" data-name="Path 593" d="M1254.21,39.819v4.368h-.354a7.636,7.636,0,0,0-.718-2.161,2.37,2.37,0,0,0-2.415-1.266H1249.7V53.233a6.171,6.171,0,0,0,.114,1.555,1.18,1.18,0,0,0,.448.545,1.588,1.588,0,0,0,.913.229h.445v.421h-7.133v-.421h.445a1.65,1.65,0,0,0,.955-.248,1.154,1.154,0,0,0,.41-.575,5.976,5.976,0,0,0,.108-1.508V40.76h-1.021a2.6,2.6,0,0,0-2.016.692,4.852,4.852,0,0,0-1.117,2.735h-.349V39.819h12.307" transform="translate(-983.614 -39.442)" fill="#fff"/>
    </g>
    <g id="Group_351" data-name="Group 351" transform="translate(27.697 38.291)">
      <rect id="Rectangle_224" data-name="Rectangle 224" width="24.666" height="3.524" transform="matrix(0.707, -0.707, 0.707, 0.707, 0, 17.44)" fill="#ffbe1a"/>
      <rect id="Rectangle_225" data-name="Rectangle 225" width="24.666" height="3.524" transform="matrix(0.707, -0.707, 0.707, 0.707, 4.984, 22.425)" fill="#e50019"/>
      <rect id="Rectangle_226" data-name="Rectangle 226" width="24.666" height="3.523" transform="translate(9.967 27.407) rotate(-44.996)" fill="#2e8537"/>
      <rect id="Rectangle_227" data-name="Rectangle 227" width="24.666" height="3.523" transform="translate(14.951 32.391) rotate(-45.003)" fill="#445da8"/>
    </g>
    <g id="Group_353" data-name="Group 353" transform="translate(132.539 62.546)">
      <g id="Group_352" data-name="Group 352">
        <path id="Path_594" data-name="Path 594" d="M452.835,145.886c0,1.544.087,1.776.866,1.833l.549.043a.281.281,0,0,1-.029.362c-.895-.029-1.386-.043-1.963-.043-.606,0-1.126.014-1.891.043a.281.281,0,0,1-.029-.362l.448-.043c.837-.087.866-.289.866-1.833v-.736a2.9,2.9,0,0,0-.462-1.79l-1.7-3.32c-.491-.952-.707-1.025-1.141-1.1l-.4-.072a.264.264,0,0,1,.029-.361c.462.029.982.043,1.675.043.664,0,1.184-.014,1.544-.043.13.043.13.274.043.361l-.188.029c-.505.072-.606.144-.606.26a7.138,7.138,0,0,0,.447,1.111c.534,1.068,1.068,2.209,1.631,3.205.448-.765.924-1.6,1.357-2.44a13.144,13.144,0,0,0,.938-1.905c0-.087-.26-.188-.606-.231l-.26-.029a.24.24,0,0,1,.029-.361c.52.029.938.043,1.385.043s.852-.014,1.343-.043a.242.242,0,0,1,.029.361l-.4.072c-.751.13-1.184,1.04-1.905,2.281l-.909,1.574a3.327,3.327,0,0,0-.679,2.339Z" transform="translate(-447.885 -137.758)" fill="#909295"/>
        <path id="Path_595" data-name="Path 595" d="M483.5,156.25a2.948,2.948,0,0,1-3.046,3.1,2.853,2.853,0,0,1-2.959-2.973,3.034,3.034,0,0,1,3.075-3.118A2.884,2.884,0,0,1,483.5,156.25Zm-3.1-2.555c-.953,0-1.66.909-1.66,2.5,0,1.314.592,2.728,1.862,2.728s1.66-1.327,1.66-2.439C482.263,155.254,481.772,153.694,480.4,153.694Z" transform="translate(-470.11 -148.83)" fill="#909295"/>
        <path id="Path_596" data-name="Path 596" d="M507,157.029c0,1,.246,1.66,1.343,1.66a1.889,1.889,0,0,0,1.169-.433,1,1,0,0,0,.289-.837v-2.368c0-.939-.1-.967-.534-1.14l-.188-.072a.2.2,0,0,1,.014-.317,5.764,5.764,0,0,0,1.689-.26c.072.015.115.043.13.1-.029.274-.043.722-.043,1.256v2.426c0,1.14.043,1.573.447,1.573a2.717,2.717,0,0,0,.563-.073c.087.073.1.361-.014.418a7.5,7.5,0,0,0-1.891.534.2.2,0,0,1-.173-.1V158.8c0-.129-.043-.2-.13-.2a3.775,3.775,0,0,1-1.993.751c-1.27,0-1.746-.634-1.746-1.8v-2.411c0-.909,0-1.039-.433-1.227l-.173-.072a.214.214,0,0,1,.029-.317,5.1,5.1,0,0,0,1.545-.26c.087.015.13.043.144.1a10.912,10.912,0,0,0-.044,1.256Z" transform="translate(-490.952 -148.83)" fill="#909295"/>
        <path id="Path_597" data-name="Path 597" d="M535.056,154.4c0-.563,0-.635-.39-.9l-.13-.086a.2.2,0,0,1,.014-.26,11.11,11.11,0,0,0,1.458-.707c.072.014.115.043.115.1v.837c0,.072.015.115.044.13a2.915,2.915,0,0,1,1.588-.867.6.6,0,0,1,.649.578.641.641,0,0,1-.621.664.558.558,0,0,1-.318-.1,1.18,1.18,0,0,0-.635-.231.64.64,0,0,0-.52.288,2.194,2.194,0,0,0-.188,1.112v1.963c0,1.039.029,1.212.577,1.256l.52.043a.253.253,0,0,1-.029.362c-.678-.029-1.1-.043-1.6-.043s-.953.014-1.328.043a.253.253,0,0,1-.029-.362l.275-.043c.534-.087.548-.216.548-1.256Z" transform="translate(-512.641 -148.223)" fill="#909295"/>
        <path id="Path_598" data-name="Path 598" d="M569.344,145.914c0,1.515.029,1.7.953,1.8l.39.043a.283.283,0,0,1-.029.362c-.823-.029-1.3-.043-1.877-.043-.607,0-1.126.014-1.761.043a.281.281,0,0,1-.029-.362l.3-.043c.837-.115.866-.289.866-1.8v-5.327c0-1.227-.029-1.472-.678-1.544l-.52-.058a.241.241,0,0,1,.029-.361,22.827,22.827,0,0,1,2.858-.115,5.209,5.209,0,0,1,2.772.578,2.5,2.5,0,0,1,1.155,2.165,2.445,2.445,0,0,1-1.444,2.295,4.866,4.866,0,0,1-1.992.433c-.1-.043-.1-.26-.015-.289a2.245,2.245,0,0,0,2.122-2.425,2.128,2.128,0,0,0-2.324-2.309c-.765,0-.779.058-.779.519Z" transform="translate(-537.2 -137.758)" fill="#909295"/>
        <path id="Path_599" data-name="Path 599" d="M598.255,156.163c.217-.072.246-.2.246-.418l.015-.664c.014-.534-.159-1.256-1.054-1.256-.4,0-.895.2-.924.649-.015.231-.029.4-.144.491a1.551,1.551,0,0,1-.823.274.183.183,0,0,1-.2-.2c0-.75,1.631-1.776,2.685-1.776s1.544.606,1.5,1.689l-.087,2.511c-.029.664.1,1.257.664,1.257a.824.824,0,0,0,.361-.087c.072-.043.145-.1.188-.1s.1.087.1.188a1.517,1.517,0,0,1-1.212.634,1.153,1.153,0,0,1-.939-.447c-.057-.086-.144-.2-.231-.2a2.205,2.205,0,0,0-.563.289,2.137,2.137,0,0,1-1.039.361,1.5,1.5,0,0,1-1.01-.332,1.348,1.348,0,0,1-.448-1.01c0-.563.274-.895,1.2-1.227Zm-.895,2.541a1.634,1.634,0,0,0,.881-.361c.173-.173.173-.375.187-.678l.029-.852c0-.159-.058-.187-.144-.187a2.713,2.713,0,0,0-.592.144c-.852.288-1.27.505-1.27,1.068A.87.87,0,0,0,597.36,158.7Z" transform="translate(-558.548 -148.83)" fill="#909295"/>
        <path id="Path_600" data-name="Path 600" d="M619.112,154.4c0-.563,0-.635-.39-.9l-.13-.086a.2.2,0,0,1,.014-.26,11.13,11.13,0,0,0,1.458-.707c.072.014.116.043.116.1v.837c0,.072.014.115.043.13a2.918,2.918,0,0,1,1.588-.867.6.6,0,0,1,.65.578.641.641,0,0,1-.621.664.556.556,0,0,1-.318-.1,1.181,1.181,0,0,0-.635-.231.64.64,0,0,0-.52.288,2.191,2.191,0,0,0-.188,1.112v1.963c0,1.039.029,1.212.577,1.256l.52.043a.253.253,0,0,1-.029.362c-.678-.029-1.1-.043-1.6-.043s-.953.014-1.328.043a.254.254,0,0,1-.029-.362l.274-.043c.534-.087.549-.216.549-1.256Z" transform="translate(-575.724 -148.223)" fill="#909295"/>
        <path id="Path_601" data-name="Path 601" d="M639.254,151.632c-.246,0-.26.043-.26.346v2.7c0,.837.1,1.6,1.054,1.6a1.1,1.1,0,0,0,.39-.073c.13-.044.318-.2.361-.2.115,0,.173.158.144.246a2,2,0,0,1-1.516.663c-1.241,0-1.5-.693-1.5-1.558V152.05c0-.389-.015-.418-.3-.418h-.4a.241.241,0,0,1-.043-.3,2.852,2.852,0,0,0,.924-.448,3.57,3.57,0,0,0,.606-.852c.072-.029.246-.029.3.072v.649c0,.26.015.275.26.275h1.6a.462.462,0,0,1,.014.607Z" transform="translate(-589.919 -146.392)" fill="#909295"/>
        <path id="Path_602" data-name="Path 602" d="M655.3,154.4c0-.563,0-.635-.39-.9l-.13-.086a.2.2,0,0,1,.015-.26,7.833,7.833,0,0,0,1.443-.707.168.168,0,0,1,.159.1c-.029.332-.029.548-.029.678a.151.151,0,0,0,.159.159,3.959,3.959,0,0,1,2.021-.737,1.6,1.6,0,0,1,1.689,1.79v2.483c0,1.039.029,1.184.548,1.256l.318.043a.254.254,0,0,1-.029.362c-.434-.029-.852-.043-1.357-.043s-.953.014-1.342.043a.253.253,0,0,1-.029-.362l.274-.043c.534-.087.548-.216.548-1.256v-2.151a1.251,1.251,0,0,0-1.356-1.429,1.575,1.575,0,0,0-1.227.5,1.217,1.217,0,0,0-.216.867v2.208c0,1.039.029,1.169.549,1.256l.26.043a.253.253,0,0,1-.029.362c-.39-.029-.809-.043-1.314-.043s-.953.014-1.357.043a.253.253,0,0,1-.029-.362l.3-.043c.534-.071.548-.216.548-1.256Z" transform="translate(-602.858 -148.223)" fill="#909295"/>
        <path id="Path_603" data-name="Path 603" d="M685.565,155.455c-.375,0-.39.029-.39.39a2.443,2.443,0,0,0,2.4,2.7,1.556,1.556,0,0,0,1.328-.707.191.191,0,0,1,.26.173,2.522,2.522,0,0,1-2.266,1.342,2.588,2.588,0,0,1-2.093-.952,3.064,3.064,0,0,1-.607-1.876,3.031,3.031,0,0,1,2.9-3.263,1.892,1.892,0,0,1,2.05,1.718.884.884,0,0,1-.058.375c-.043.086-.245.1-.852.1Zm.895-.433c1.068,0,1.386-.058,1.5-.145.043-.029.087-.087.087-.274,0-.4-.274-.909-1.112-.909a1.694,1.694,0,0,0-1.6,1.256c0,.029,0,.072.1.072Z" transform="translate(-625.232 -148.83)" fill="#909295"/>
        <path id="Path_604" data-name="Path 604" d="M707.505,154.4c0-.563,0-.635-.39-.9l-.13-.086a.2.2,0,0,1,.015-.26,11.129,11.129,0,0,0,1.458-.707c.072.014.116.043.116.1v.837c0,.072.014.115.043.13a2.92,2.92,0,0,1,1.588-.867.6.6,0,0,1,.65.578.641.641,0,0,1-.621.664.557.557,0,0,1-.318-.1,1.182,1.182,0,0,0-.635-.231.64.64,0,0,0-.52.288,2.19,2.19,0,0,0-.187,1.112v1.963c0,1.039.028,1.212.576,1.256l.521.043a.253.253,0,0,1-.029.362c-.679-.029-1.1-.043-1.6-.043s-.953.014-1.328.043a.253.253,0,0,1-.029-.362l.274-.043c.534-.087.549-.216.549-1.256Z" transform="translate(-642.062 -148.223)" fill="#909295"/>
        <path id="Path_605" data-name="Path 605" d="M740.984,140.741c-.245,0-.245.029-.245.418v3.046c0,1.039.028,1.212.548,1.256l.52.043a.254.254,0,0,1-.029.362c-.65-.029-1.069-.043-1.574-.043s-.952.014-1.386.043a.254.254,0,0,1-.029-.362l.332-.043c.534-.071.548-.216.548-1.256v-3.046c0-.389,0-.418-.288-.418h-.506a.2.2,0,0,1-.043-.274l.621-.3a.327.327,0,0,0,.216-.288,6.47,6.47,0,0,1,.448-2.541,2.839,2.839,0,0,1,2.6-1.833c.765,0,1.415.347,1.415.866a.553.553,0,0,1-.548.52.412.412,0,0,1-.347-.173,1.609,1.609,0,0,0-1.155-.635,1.112,1.112,0,0,0-1.025.794,7.659,7.659,0,0,0-.318,2.439v.419c0,.39,0,.4.245.4h1.646a.446.446,0,0,1-.1.607Z" transform="translate(-666.158 -135.501)" fill="#909295"/>
        <path id="Path_606" data-name="Path 606" d="M761.242,156.25a2.948,2.948,0,0,1-3.046,3.1,2.854,2.854,0,0,1-2.959-2.973,3.034,3.034,0,0,1,3.075-3.118A2.885,2.885,0,0,1,761.242,156.25Zm-3.1-2.555c-.953,0-1.661.909-1.661,2.5,0,1.314.592,2.728,1.863,2.728s1.66-1.327,1.66-2.439C760,155.254,759.509,153.694,758.138,153.694Z" transform="translate(-678.549 -148.83)" fill="#909295"/>
        <path id="Path_607" data-name="Path 607" d="M783.75,154.4c0-.563,0-.635-.389-.9l-.13-.086a.2.2,0,0,1,.015-.26,11.154,11.154,0,0,0,1.458-.707c.072.014.115.043.115.1v.837c0,.072.014.115.043.13a2.914,2.914,0,0,1,1.588-.867.6.6,0,0,1,.649.578.641.641,0,0,1-.621.664.556.556,0,0,1-.317-.1,1.183,1.183,0,0,0-.635-.231.64.64,0,0,0-.52.288,2.2,2.2,0,0,0-.188,1.112v1.963c0,1.039.029,1.212.577,1.256l.52.043a.253.253,0,0,1-.029.362c-.678-.029-1.1-.043-1.6-.043s-.953.014-1.327.043a.253.253,0,0,1-.029-.362l.274-.043c.534-.087.549-.216.549-1.256Z" transform="translate(-699.284 -148.223)" fill="#909295"/>
        <path id="Path_608" data-name="Path 608" d="M824.607,146.042c0,.577.087.923.346,1.024a.119.119,0,0,1-.014.173,3.228,3.228,0,0,0-.707.13,11.287,11.287,0,0,1-2.584.375,6.017,6.017,0,0,1-4.4-1.6,4.544,4.544,0,0,1-1.328-3.277,4.957,4.957,0,0,1,1.3-3.421,5.978,5.978,0,0,1,4.577-1.689,8.63,8.63,0,0,1,1.834.217,3.787,3.787,0,0,0,.894.13,16.206,16.206,0,0,0,.217,2.093c-.043.116-.3.13-.39.044-.4-1.559-1.487-2.05-2.959-2.05a3.829,3.829,0,0,0-4.028,4.157c0,2.772,1.429,4.951,4.331,4.951.9,0,1.429-.187,1.588-.433a1.612,1.612,0,0,0,.144-.822v-.577c0-1.213-.043-1.3-.938-1.4l-.635-.072a.242.242,0,0,1,0-.361c.419.029,1.213.043,2.064.043.563,0,1.054-.014,1.53-.043a.252.252,0,0,1,.014.361l-.23.029c-.607.072-.621.477-.621,1.213Z" transform="translate(-724.089 -137.193)" fill="#909295"/>
        <path id="Path_609" data-name="Path 609" d="M857.511,154.4c0-.563,0-.635-.39-.9l-.13-.086a.2.2,0,0,1,.015-.26,11.141,11.141,0,0,0,1.458-.707c.072.014.115.043.115.1v.837c0,.072.014.115.043.13a2.916,2.916,0,0,1,1.588-.867.6.6,0,0,1,.649.578.641.641,0,0,1-.621.664.559.559,0,0,1-.318-.1,1.178,1.178,0,0,0-.635-.231.641.641,0,0,0-.52.288,2.195,2.195,0,0,0-.188,1.112v1.963c0,1.039.029,1.212.578,1.256l.52.043a.253.253,0,0,1-.029.362c-.678-.029-1.1-.043-1.6-.043s-.952.014-1.328.043a.253.253,0,0,1-.029-.362l.275-.043c.534-.087.549-.216.549-1.256Z" transform="translate(-754.64 -148.223)" fill="#909295"/>
        <path id="Path_610" data-name="Path 610" d="M880.815,156.25a2.948,2.948,0,0,1-3.046,3.1,2.854,2.854,0,0,1-2.96-2.973,3.034,3.034,0,0,1,3.075-3.118A2.884,2.884,0,0,1,880.815,156.25Zm-3.1-2.555c-.953,0-1.661.909-1.661,2.5,0,1.314.592,2.728,1.862,2.728s1.661-1.327,1.661-2.439C879.573,155.254,879.082,153.694,877.711,153.694Z" transform="translate(-768.287 -148.83)" fill="#909295"/>
        <path id="Path_611" data-name="Path 611" d="M900.505,155.341c-.332-.808-.505-.952-.867-1.039l-.23-.058c-.073-.072-.087-.288.043-.346.447.029.852.043,1.284.043q.671,0,1.257-.043a.227.227,0,0,1,.028.346l-.332.058c-.2.029-.318.115-.318.2a2.963,2.963,0,0,0,.232.751l.9,2.209c.129.332.259.592.259.621a3.235,3.235,0,0,0,.332-.693l.707-1.747c.187-.462.2-.65.129-.837a.808.808,0,0,0-.663-.505l-.232-.058a.226.226,0,0,1,.043-.346c.361.029.823.043,1.2.043.448,0,.881-.014,1.372-.043.13.043.13.274.044.346l-.3.058c-.577.115-.549.158-.375.664.158.476.938,2.31,1.1,2.7a1.508,1.508,0,0,0,.187.4,2.364,2.364,0,0,0,.2-.4c.187-.418.765-1.949.981-2.555a2.062,2.062,0,0,0,.145-.621c0-.087-.086-.158-.26-.187l-.36-.058a.224.224,0,0,1,.014-.346c.419.029.78.043,1.14.043.275,0,.621-.014.939-.043a.239.239,0,0,1,.043.346l-.289.058c-.347.072-.477.274-.78.909-.39.808-1.083,2.541-1.357,3.277-.2.52-.375.938-.491,1.314a.288.288,0,0,1-.187.057.218.218,0,0,1-.159-.057c-.086-.26-.347-1.011-.592-1.588l-.693-1.66a7.371,7.371,0,0,0-.332-.737,6.7,6.7,0,0,0-.318.708l-.751,1.8c-.26.621-.462,1.14-.577,1.472a.229.229,0,0,1-.173.057.251.251,0,0,1-.174-.057c-.087-.3-.317-.895-.433-1.2Z" transform="translate(-786.707 -149.308)" fill="#909295"/>
        <path id="Path_612" data-name="Path 612" d="M941.287,151.632c-.245,0-.26.043-.26.346v2.7c0,.837.1,1.6,1.054,1.6a1.1,1.1,0,0,0,.39-.073c.129-.044.317-.2.361-.2.115,0,.173.158.144.246a2,2,0,0,1-1.516.663c-1.241,0-1.5-.693-1.5-1.558V152.05c0-.389-.014-.418-.3-.418h-.4a.241.241,0,0,1-.043-.3,2.85,2.85,0,0,0,.924-.448,3.581,3.581,0,0,0,.606-.852c.072-.029.245-.029.3.072v.649c0,.26.014.275.26.275h1.6a.462.462,0,0,1,.015.607Z" transform="translate(-816.592 -146.392)" fill="#909295"/>
        <path id="Path_613" data-name="Path 613" d="M956.58,137.681c0-.852-.014-.939-.448-1.2l-.145-.087a.221.221,0,0,1,0-.288,10.261,10.261,0,0,0,1.559-.606.16.16,0,0,1,.145.086c-.015.433-.044,1.155-.044,1.79v3.031c0,.13.015.245.058.274a3.282,3.282,0,0,1,1.95-.751,1.684,1.684,0,0,1,1.862,1.863v2.411c0,1.039.028,1.2.548,1.256l.39.043a.253.253,0,0,1-.028.362c-.52-.029-.939-.043-1.444-.043s-.952.014-1.343.043a.253.253,0,0,1-.029-.362l.288-.043c.534-.087.548-.216.548-1.256v-2.064c0-.924-.448-1.545-1.372-1.545a1.73,1.73,0,0,0-1.125.39c-.26.217-.3.289-.3.794v2.425c0,1.039.029,1.184.549,1.256l.3.043c.1.058.072.318-.029.362-.433-.029-.852-.043-1.357-.043s-.952.014-1.415.043a.253.253,0,0,1-.029-.362l.361-.043c.534-.057.549-.216.549-1.256Z" transform="translate(-828.925 -135.501)" fill="#909295"/>
        <path id="Path_614" data-name="Path 614" d="M1000.431,145.629c0-.563,0-.635-.39-.9l-.13-.086a.2.2,0,0,1,.014-.26,9.842,9.842,0,0,0,1.487-.707.134.134,0,0,1,.145.086c-.029.506-.058,1.2-.058,1.79v2.6c0,1.039.029,1.184.549,1.256l.3.043a.253.253,0,0,1-.03.362c-.433-.029-.852-.043-1.357-.043s-.952.014-1.357.043a.253.253,0,0,1-.028-.362l.3-.043c.534-.071.548-.216.548-1.256Zm1.2-4.114a.751.751,0,0,1-1.5.029.75.75,0,0,1,.779-.779A.722.722,0,0,1,1001.629,141.515Z" transform="translate(-861.878 -139.451)" fill="#909295"/>
        <path id="Path_615" data-name="Path 615" d="M1014.72,154.4c0-.563,0-.635-.39-.9l-.13-.086a.2.2,0,0,1,.014-.26,7.8,7.8,0,0,0,1.444-.707.168.168,0,0,1,.159.1c-.029.332-.029.548-.029.678a.152.152,0,0,0,.159.159,3.959,3.959,0,0,1,2.021-.737,1.6,1.6,0,0,1,1.689,1.79v2.483c0,1.039.029,1.184.548,1.256l.317.043a.254.254,0,0,1-.028.362c-.433-.029-.852-.043-1.357-.043s-.953.014-1.343.043a.253.253,0,0,1-.028-.362l.274-.043c.534-.087.548-.216.548-1.256v-2.151a1.251,1.251,0,0,0-1.357-1.429,1.573,1.573,0,0,0-1.227.5,1.219,1.219,0,0,0-.217.867v2.208c0,1.039.029,1.169.548,1.256l.26.043a.254.254,0,0,1-.028.362c-.39-.029-.809-.043-1.314-.043-.52,0-.953.014-1.357.043a.253.253,0,0,1-.029-.362l.3-.043c.534-.071.548-.216.548-1.256Z" transform="translate(-872.602 -148.223)" fill="#909295"/>
        <path id="Path_616" data-name="Path 616" d="M1060.237,144.165c-.1-.318-.159-.361-.592-.361h-2.18c-.361,0-.447.043-.549.347l-.5,1.516a5.523,5.523,0,0,0-.318,1.2c0,.174.072.26.418.289l.477.043a.233.233,0,0,1-.029.362c-.375-.029-.823-.029-1.5-.043-.477,0-1,.028-1.386.043a.285.285,0,0,1-.028-.362l.476-.043a.962.962,0,0,0,.867-.707c.26-.663.664-1.6,1.27-3.219l1.473-3.9a2.071,2.071,0,0,0,.245-1.025,1.62,1.62,0,0,0,.751-.549.2.2,0,0,1,.216.13c.188.636.419,1.3.635,1.935l1.978,5.8c.419,1.241.606,1.458,1.227,1.53l.39.043a.284.284,0,0,1,0,.362c-.592-.029-1.1-.043-1.747-.043-.693,0-1.241.028-1.66.043a.243.243,0,0,1-.029-.362l.419-.043c.3-.029.5-.115.5-.26a2.972,2.972,0,0,0-.187-.765Zm-2.858-1.285c-.115.333-.1.347.3.347h1.775c.419,0,.448-.057.318-.447l-.78-2.353a9.35,9.35,0,0,0-.332-.909h-.029a8.687,8.687,0,0,0-.346.852Z" transform="translate(-902.761 -137.193)" fill="#909295"/>
        <path id="Path_617" data-name="Path 617" d="M1096.177,153.521a3.371,3.371,0,0,1,.231,1.169.251.251,0,0,1-.346.043,1.409,1.409,0,0,0-1.271-1.054.853.853,0,0,0-.924.88c0,.592.606.91,1.111,1.2.766.433,1.473.924,1.473,1.949,0,1.1-1.01,1.645-2.078,1.645a2.4,2.4,0,0,1-1.545-.433,4.311,4.311,0,0,1-.174-1.458.246.246,0,0,1,.333-.014c.245.794.707,1.486,1.53,1.486a.889.889,0,0,0,.967-.924c0-.663-.577-1.024-1.112-1.328-.837-.477-1.429-.982-1.429-1.776,0-1.053.866-1.646,1.963-1.646A2.549,2.549,0,0,1,1096.177,153.521Z" transform="translate(-931.773 -148.83)" fill="#909295"/>
        <path id="Path_618" data-name="Path 618" d="M1111.963,145.629c0-.563,0-.635-.39-.9l-.13-.086a.2.2,0,0,1,.014-.26,9.875,9.875,0,0,0,1.487-.707.134.134,0,0,1,.145.086c-.029.506-.058,1.2-.058,1.79v2.6c0,1.039.029,1.184.549,1.256l.3.043a.253.253,0,0,1-.029.362c-.433-.029-.852-.043-1.357-.043s-.952.014-1.356.043a.253.253,0,0,1-.029-.362l.3-.043c.534-.071.549-.216.549-1.256Zm1.2-4.114a.751.751,0,0,1-1.5.029.75.75,0,0,1,.779-.779A.721.721,0,0,1,1113.161,141.515Z" transform="translate(-945.582 -139.451)" fill="#909295"/>
        <path id="Path_619" data-name="Path 619" d="M1128.273,156.163c.217-.072.245-.2.245-.418l.014-.664c.015-.534-.158-1.256-1.054-1.256-.4,0-.9.2-.924.649-.014.231-.029.4-.145.491a1.55,1.55,0,0,1-.823.274.183.183,0,0,1-.2-.2c0-.75,1.632-1.776,2.685-1.776s1.545.606,1.5,1.689l-.086,2.511c-.029.664.1,1.257.664,1.257a.824.824,0,0,0,.361-.087c.073-.043.144-.1.187-.1s.1.087.1.188a1.516,1.516,0,0,1-1.212.634,1.153,1.153,0,0,1-.939-.447c-.057-.086-.144-.2-.231-.2a2.2,2.2,0,0,0-.563.289,2.134,2.134,0,0,1-1.039.361,1.5,1.5,0,0,1-1.011-.332,1.348,1.348,0,0,1-.447-1.01c0-.563.274-.895,1.2-1.227Zm-.9,2.541a1.631,1.631,0,0,0,.88-.361c.173-.173.173-.375.188-.678l.029-.852c0-.159-.058-.187-.144-.187a2.7,2.7,0,0,0-.591.144c-.852.288-1.271.505-1.271,1.068A.87.87,0,0,0,1127.378,158.7Z" transform="translate(-956.32 -148.83)" fill="#909295"/>
      </g>
    </g>
  </g>
</svg>
