<svg xmlns="http://www.w3.org/2000/svg" width="50.001" height="50" viewBox="0 0 50.001 50"><path data-name="Rectangle 186" fill="none" d="M.001 0h50v50h-50z"/><g data-name="Group 297"><path data-name="Path 435" d="M23.607 1c.694.109 1.391.2 2.082.328a21.682 21.682 0 0 1 15.84 11.418 21.251 21.251 0 0 1 2.443 12.607c-.007.068-.023.136-.047.277l-3.329-.387c0-.906.033-1.769-.005-2.628-.313-7.113-3.574-12.508-9.8-15.891a18.525 18.525 0 1 0-5.814 34.614c.422-.069.595.029.66.481.136.941.345 1.872.547 2.925-1.17.1-2.278.276-3.387.283-9.085.055-15.866-3.923-20.265-11.831A19.874 19.874 0 0 1 .15 21.002c1.09-9.217 6.1-15.445 14.728-18.776a18.34 18.34 0 0 1 5.245-1.116 2.038 2.038 0 0 0 .393-.11z" fill="#2b446c"/><path data-name="Path 436" d="M11.517 24.277l2.569-2.29 4.83 4.671L29.85 15.721l2.36 2.378-13.315 13.315z" fill="#1d74ce"/><path data-name="Path 437" d="M50.001 47.762l-1.216 1.209-7.994-8c-.528.347-.953.684-1.426.929a6.735 6.735 0 0 1-7.575-.518 7.009 7.009 0 1 1 9.889-9.691 6.753 6.753 0 0 1 .368 7.584.518.518 0 0 0 .1.749q3.677 3.648 7.333 7.317c.148.142.324.261.521.421zm-8.71-11.995a5.319 5.319 0 1 0-10.638-.032 5.319 5.319 0 1 0 10.638.032z" fill="#2b446c"/></g></svg>