<svg xmlns="http://www.w3.org/2000/svg" width="50" height="50" viewBox="0 0 50 50"><path data-name="Rectangle 183" fill="none" d="M0 0h50v50H0z"/><g data-name="Group 278"><path data-name="Path 394" d="M15.034 3.822c.628-2.314 1.993-3.716 4.2-3.816 2.492-.113 3.939 1.437 4.662 3.816h9.995c2.174 0 2.925.753 2.93 2.929q.011 4.79 0 9.581c0 .4-.048.8-.078 1.262h-1.346V7.445c0-2.095 0-2.1-2.1-2.1h-4.815c0 .794.02 1.5 0 2.2-.051 1.486-.8 2.356-2.21 2.368q-6.8.058-13.61 0a2.2 2.2 0 0 1-2.322-2.312c-.045-.676-.008-1.358-.008-2.221-2.07 0-4.068-.03-6.063.037-.257.008-.557.483-.725.8a1.9 1.9 0 0 0-.037.81c0 12.228.013 24.456-.022 36.684 0 1.282.34 1.752 1.677 1.735 5.479-.071 10.959-.03 16.44-.03h1.551v1.421c-.444.029-.837.077-1.231.077q-8.49.007-16.979 0c-2.168 0-2.937-.77-2.938-2.936q-.007-18.548 0-37.095c0-2.264.777-3.054 2.993-3.058 3.317-.008 6.637-.003 10.036-.003zm-3.2 1.553c0 .661.029 1.117-.006 1.568-.084 1.094.321 1.541 1.468 1.525 4.13-.056 8.262-.041 12.393-.007.963.008 1.444-.293 1.364-1.329-.044-.569-.008-1.144-.008-1.822h-4.466c-.332-2.585-1.139-3.624-2.855-3.771-1.848-.158-2.632.656-3.62 3.836z" fill="#2b446c"/><path data-name="Path 395" d="M25.489 34.937V21.871c0-1.846.293-2.157 2.086-2.16q9.227-.013 18.453 0c1.716 0 2.147.44 2.148 2.157q.009 12.931 0 25.861c0 1.776-.473 2.263-2.206 2.264q-9.159.009-18.318 0c-1.737 0-2.159-.419-2.162-2.127q-.01-6.463-.001-12.929zm1.5-13.716v27.155h19.587V21.221z" fill="#2b446c"/><path data-name="Path 396" d="M20.898 34.657a6.775 6.775 0 1 1-6.7-6.794 6.731 6.731 0 0 1 6.7 6.794zm-7.5-5.193a5.271 5.271 0 0 0 1.219 10.471c2.588-.239 4.673-2.294 4.549-4.609h-5.768zm5.884 4.406a4.667 4.667 0 0 0-4.3-4.318v4.318z" fill="#1d74ce"/><path data-name="Path 401" d="M44.312 23.266v7.268H29.369v-7.268zm-1.528 5.869v-4.422H30.812v4.422z" fill="#1d74ce"/><path data-name="Path 402" d="M44.315 44.778l.074 1.332-1.44.1-.07-1.437z" fill="#2b446c"/><path data-name="Path 403" d="M39.734 46.134h-1.425v-1.376h1.345l.08 1.376z" fill="#2b446c"/><path data-name="Path 404" d="M36.487 46.13h-1.332l-.066-1.355 1.4-.093z" fill="#2b446c"/><path data-name="Path 405" d="M36.504 36.842h-1.338v-1.3h1.338z" fill="#2b446c"/><path data-name="Path 406" d="M38.293 36.821v-1.287l1.328-.1v1.387z" fill="#2b446c"/><path data-name="Path 407" d="M44.332 35.444v1.362l-1.375.094-.087-1.356z" fill="#2b446c"/><path data-name="Path 408" d="M36.594 39.887h-1.428l-.075-1.288 1.423-.082.08 1.37z" fill="#2b446c"/><path data-name="Path 409" d="M39.688 38.507v1.349l-1.378.084-.084-1.327z" fill="#2b446c"/><path data-name="Path 410" d="M44.384 39.884h-1.43l-.078-1.281 1.425-.087.083 1.368z" fill="#2b446c"/><path data-name="Path 411" d="M32.146 44.764H33.4v1.361h-1.254z" fill="#2b446c"/><path data-name="Path 412" d="M30.452 46.146H29.11c-.033-.422-.065-.839-.1-1.355l1.337-.118c.031.492.062.911.105 1.473z" fill="#2b446c"/><path data-name="Path 413" d="M35.159 41.726h1.36v1.293h-1.36z" fill="#2b446c"/><path data-name="Path 414" d="M38.35 41.722l1.284-.059v1.336c-1.144.3-1.657.012-1.284-1.277z" fill="#2b446c"/><path data-name="Path 415" d="M42.943 43.107v-1.373h1.334v1.31z" fill="#2b446c"/><path data-name="Path 416" d="M29.118 35.525h1.239v1.284l-1.239.095z" fill="#2b446c"/><path data-name="Path 417" d="M33.687 43.066h-1.521l-.122-1.3c.4-.029.875-.2 1.035-.045a4.456 4.456 0 0 1 .608 1.345z" fill="#2b446c"/><path data-name="Path 418" d="M30.356 43.059h-1.235v-1.322h1.235z" fill="#2b446c"/><path data-name="Path 419" d="M32.132 39.833v-1.2c1.053-.294 1.58-.071 1.256 1.195z" fill="#2b446c"/><path data-name="Path 420" d="M29.105 38.587h1.252v1.214c-1.009.327-1.551.131-1.252-1.214z" fill="#2b446c"/><path data-name="Path 421" d="M33.411 35.444v1.383H32.14v-1.289z" fill="#2b446c"/></g></svg>