<svg xmlns="http://www.w3.org/2000/svg" width="50" height="50.001" viewBox="0 0 50 50.001"><path data-name="Rectangle 175" fill="none" d="M0 0h50v50H0z"/><g data-name="Group 245"><g data-name="Group 244"><path data-name="Path 376" d="M34.638 17.658H32.42a7.717 7.717 0 0 0-.516-1.245l1.568-1.568a1.038 1.038 0 0 0 0-1.468L31.63 11.53a1.039 1.039 0 0 0-1.468 0l-1.568 1.568a7.71 7.71 0 0 0-1.245-.516v-2.217a1.039 1.039 0 0 0-1.038-1.038H23.7a1.039 1.039 0 0 0-1.038 1.038v2.218a7.719 7.719 0 0 0-1.246.516l-1.569-1.569a1.039 1.039 0 0 0-1.468 0l-1.849 1.846a1.038 1.038 0 0 0 0 1.468l1.568 1.568a7.711 7.711 0 0 0-.516 1.245h-2.218a1.039 1.039 0 0 0-1.038 1.038v2.611a1.039 1.039 0 0 0 1.038 1.038h2.218a7.716 7.716 0 0 0 .516 1.245l-1.568 1.568a1.039 1.039 0 0 0 0 1.468l1.846 1.846a1.039 1.039 0 0 0 1.468 0l1.568-1.568a7.712 7.712 0 0 0 1.246.516v2.218a1.039 1.039 0 0 0 1.038 1.038h2.61a1.039 1.039 0 0 0 1.038-1.038v-2.215a7.715 7.715 0 0 0 1.245-.516l1.568 1.568a1.039 1.039 0 0 0 1.468 0l1.846-1.846a1.038 1.038 0 0 0 0-1.468l-1.568-1.568a7.71 7.71 0 0 0 .516-1.245h2.218a1.039 1.039 0 0 0 1.038-1.038v-2.611a1.039 1.039 0 0 0-1.037-1.04zm-.427 3.221h-2.35a.732.732 0 0 0-.713.566 6.262 6.262 0 0 1-.779 1.882.733.733 0 0 0 .1.9l1.661 1.661-1.242 1.242-1.661-1.661a.732.732 0 0 0-.9-.1 6.268 6.268 0 0 1-1.881.779.732.732 0 0 0-.566.713v2.35h-1.756v-2.35a.732.732 0 0 0-.566-.713 6.26 6.26 0 0 1-1.882-.779.733.733 0 0 0-.9.1l-1.661 1.661-1.242-1.242 1.661-1.661a.733.733 0 0 0 .1-.9 6.265 6.265 0 0 1-.779-1.882.732.732 0 0 0-.713-.566h-2.35v-1.757h2.35a.732.732 0 0 0 .713-.566 6.265 6.265 0 0 1 .779-1.882.733.733 0 0 0-.1-.9l-1.661-1.661 1.242-1.242 1.661 1.661a.732.732 0 0 0 .9.1 6.263 6.263 0 0 1 1.882-.779.732.732 0 0 0 .566-.713v-2.348h1.756v2.35a.732.732 0 0 0 .566.713 6.266 6.266 0 0 1 1.882.779.733.733 0 0 0 .9-.1l1.661-1.661 1.242 1.242-1.661 1.661a.732.732 0 0 0-.1.9 6.266 6.266 0 0 1 .779 1.882.732.732 0 0 0 .713.566h2.35z" fill="#1d74ce"/></g></g><g data-name="Group 247"><g data-name="Group 246"><path data-name="Path 377" d="M25.001 16.077a3.924 3.924 0 1 0 3.924 3.924 3.928 3.928 0 0 0-3.924-3.924zm0 6.383a2.459 2.459 0 1 1 2.459-2.459 2.462 2.462 0 0 1-2.459 2.459z" fill="#2b446c"/></g></g><g data-name="Group 249"><g data-name="Group 248"><path data-name="Path 378" d="M8.162 19.269h-2.43a.733.733 0 1 0 0 1.465h2.43a.733.733 0 0 0 0-1.465z" fill="#2b446c"/></g></g><g data-name="Group 251"><g data-name="Group 250"><path data-name="Path 379" d="M44.27 19.269h-2.43a.733.733 0 1 0 0 1.465h2.43a.733.733 0 0 0 0-1.465z" fill="#2b446c"/></g></g><g data-name="Group 253"><g data-name="Group 252"><path data-name="Path 380" d="M13.613 31.391a.733.733 0 0 0-1.036 0l-1.718 1.718a.733.733 0 0 0 1.036 1.036l1.718-1.718a.733.733 0 0 0 0-1.036z" fill="#2b446c"/></g></g><g data-name="Group 255"><g data-name="Group 254"><path data-name="Path 381" d="M39.145 5.859a.733.733 0 0 0-1.036 0l-1.718 1.718a.733.733 0 1 0 1.036 1.036l1.718-1.718a.732.732 0 0 0 0-1.036z" fill="#2b446c"/></g></g><g data-name="Group 257"><g data-name="Group 256"><path data-name="Path 382" d="M25.001 0a.732.732 0 0 0-.732.732v2.43a.733.733 0 1 0 1.465 0V.732A.732.732 0 0 0 25.001 0z" fill="#2b446c"/></g></g><g data-name="Group 259"><g data-name="Group 258"><path data-name="Path 383" d="M39.145 33.109l-1.718-1.718a.733.733 0 1 0-1.036 1.036l1.718 1.718a.733.733 0 0 0 1.036-1.036z" fill="#2b446c"/></g></g><g data-name="Group 261"><g data-name="Group 260"><path data-name="Path 384" d="M13.613 7.577l-1.718-1.718a.733.733 0 0 0-1.036 1.036l1.718 1.718a.733.733 0 0 0 1.036-1.036z" fill="#2b446c"/></g></g><g data-name="Group 263"><g data-name="Group 262"><path data-name="Path 385" d="M39.614 18.207A14.73 14.73 0 0 0 26.799 5.333a.732.732 0 1 0-.177 1.454 13.192 13.192 0 0 1 11.537 11.595.733.733 0 0 0 .727.647.757.757 0 0 0 .086 0 .732.732 0 0 0 .642-.822z" fill="#2b446c"/></g></g><g data-name="Group 265"><g data-name="Group 264"><path data-name="Path 386" d="M38.959 20.984a.732.732 0 0 0-.819.635 13.2 13.2 0 0 1-6.108 9.548 4.928 4.928 0 0 0-2.329 4.191v3.014H20.29v-3.081a4.823 4.823 0 0 0-2.257-4.08 13.25 13.25 0 0 1 5.344-24.424.733.733 0 1 0-.18-1.454 14.714 14.714 0 0 0-5.935 27.123 3.348 3.348 0 0 1 1.563 2.834v3.188a1.906 1.906 0 0 0-1.282 1.8v1.044a1.894 1.894 0 0 0 .416 1.171 1.893 1.893 0 0 0-.406 1.172v1.044a1.907 1.907 0 0 0 1.9 1.9h2.3v1.663a1.734 1.734 0 0 0 1.732 1.732h3.027a1.734 1.734 0 0 0 1.732-1.732v-1.659h2.3a1.907 1.907 0 0 0 1.9-1.9v-1.048a1.893 1.893 0 0 0-.406-1.172 1.893 1.893 0 0 0 .406-1.172v-1.049a1.906 1.906 0 0 0-1.282-1.8v-3.114a3.47 3.47 0 0 1 1.643-2.95 14.658 14.658 0 0 0 6.782-10.6.732.732 0 0 0-.628-.824zM26.782 48.272a.271.271 0 0 1-.267.267h-3.027a.271.271 0 0 1-.267-.267v-1.659h3.562zm4.207-3.56a.445.445 0 0 1-.439.439h-11.1a.445.445 0 0 1-.439-.439v-1.047a.445.445 0 0 1 .439-.439h11.1a.445.445 0 0 1 .439.439zm0-3.388a.445.445 0 0 1-.439.439h-11.1a.445.445 0 0 1-.439-.439v-1.052a.445.445 0 0 1 .439-.439h11.1a.445.445 0 0 1 .439.439z" fill="#2b446c"/></g></g></svg>