<svg xmlns="http://www.w3.org/2000/svg" width="50" height="50" viewBox="0 0 50 50"><path data-name="Rectangle 181" fill="none" d="M0 0h50v50H0z"/><g data-name="Group 268"><g data-name="Group 267"><path data-name="Path 387" d="M25.762 35.408V24.945h-1.611v10.463h-4.018v1.611h9.648v-1.611z" fill="#1d74ce"/></g></g><g data-name="Group 270"><g data-name="Group 269"><path data-name="Path 388" d="M33.886 13.863a8.636 8.636 0 0 0-5.531-3.262 7.249 7.249 0 0 0 2.24-5.02 5.63 5.63 0 0 0-11.259 0 7.231 7.231 0 0 0 2.24 5.02 8.612 8.612 0 0 0-5.531 3.262 8.514 8.514 0 0 0-1.523 6.347l.364 3.124h20.158l.363-3.124a8.471 8.471 0 0 0-1.521-6.347zM20.937 5.571a4.019 4.019 0 0 1 8.037 0c0 2.2-1.857 4.883-4.018 4.883s-4.019-2.683-4.019-4.883zm12.861 14.442l-.2 1.71h-3.016v-4.029h-1.608v4.028h-8.037v-4.028h-1.611v4.028H16.31l-.2-1.71a6.885 6.885 0 0 1 1.208-5.2 7.172 7.172 0 0 1 5.787-2.751h3.694a7.2 7.2 0 0 1 5.787 2.751 6.863 6.863 0 0 1 1.212 5.201z" fill="#2b446c"/></g></g><g data-name="Group 272"><g data-name="Group 271"><path data-name="Path 389" d="M19.483 40.429a8.559 8.559 0 0 0-5.531-3.272 7.249 7.249 0 0 0 2.24-5.02 5.63 5.63 0 0 0-11.259 0 7.231 7.231 0 0 0 2.24 5.02 8.612 8.612 0 0 0-5.532 3.262 8.538 8.538 0 0 0-1.523 6.357L.482 49.9h20.159l.364-3.124a8.471 8.471 0 0 0-1.522-6.347zM6.541 32.137a4.019 4.019 0 0 1 8.037 0c0 2.2-1.857 4.883-4.018 4.883s-4.019-2.683-4.019-4.883zm12.861 14.452l-.2 1.709h-3.01V44.27h-1.611v4.028h-8.04V44.27H4.933v4.028H1.917l-.2-1.709a6.863 6.863 0 0 1 1.208-5.2 7.172 7.172 0 0 1 5.787-2.751h3.694a7.2 7.2 0 0 1 5.787 2.751 6.863 6.863 0 0 1 1.212 5.2z" fill="#2b446c"/></g></g><g data-name="Group 274"><g data-name="Group 273"><path data-name="Path 390" d="M48.348 40.419a8.636 8.636 0 0 0-5.531-3.262 7.249 7.249 0 0 0 2.24-5.02 5.63 5.63 0 0 0-11.259 0 7.231 7.231 0 0 0 2.24 5.02 8.611 8.611 0 0 0-5.531 3.262 8.513 8.513 0 0 0-1.523 6.347l.364 3.124h20.158l.364-3.124a8.525 8.525 0 0 0-1.522-6.347zm-12.942-8.283a4.019 4.019 0 0 1 8.037 0c0 2.2-1.857 4.883-4.018 4.883s-4.019-2.682-4.019-4.883zm12.861 14.452l-.2 1.709h-3.016v-4.028h-1.605v4.028h-8.04v-4.028h-1.611v4.028h-3.016l-.2-1.709a6.863 6.863 0 0 1 1.208-5.2 7.172 7.172 0 0 1 5.787-2.751h3.694a7.2 7.2 0 0 1 5.787 2.751 6.864 6.864 0 0 1 1.215 5.201z" fill="#2b446c"/></g></g></svg>