<svg xmlns="http://www.w3.org/2000/svg" width="50" height="50" viewBox="0 0 50 50"><path data-name="Rectangle 184" fill="none" d="M0 0h50v50H0z"/><g data-name="Group 280"><path data-name="Path 423" d="M0 37.204c.158-.6.286-1.216.481-1.806a10.132 10.132 0 0 1 4.7-5.81c2.336-1.342 4.663-2.7 6.979-4.042-.646-1.4-1.267-2.771-1.908-4.129a1.408 1.408 0 0 0-.422-.474 5.5 5.5 0 0 1-2.017-5.532 2.162 2.162 0 0 1 .947-1.508c.956-.418.763-1.064.751-1.793a35.389 35.389 0 0 1 .06-4.962c.318-2.523 1.886-3.941 4.359-4.527 1.817-.43 3.562-1.3 5.392-1.509 4.256-.482 8.062.568 10.934 4.046a1.961 1.961 0 0 0 1.327.472c4.393.14 7.585 2.542 8.579 6.514.286 1.14-.017 1.5-1.6 1.324a15.7 15.7 0 0 0 1.364 1.928c.883.9.931 2.977-.027 4.464-1.146 1.779-2.32 3.541-3.573 5.45a76.415 76.415 0 0 0 7.149 4.453c3.455 1.68 5.688 4.121 6.367 7.925a2.15 2.15 0 0 0 .16.4v2.444a11.164 11.164 0 0 1-3.81 6.641 12.8 12.8 0 0 1-5.078 2.247H38.67a12.7 12.7 0 0 1-5.486-2.474 2.816 2.816 0 0 0-1.645-.611q-14.215-.055-28.43-.009a2.979 2.979 0 0 1-3.106-1.8zM30.585 9.123a2.518 2.518 0 0 0-.071-.3c-1.839-5-6.316-6.883-11.568-6.14-1.384.2-2.663 1.048-4.043 1.38-3 .722-3.969 1.773-4.006 4.844-.02 1.656.074 3.313.107 4.969.022 1.076-.366 1.715-1.56 1.349a3.8 3.8 0 0 0 1.594 4.536 1.826 1.826 0 0 1 .566.892 16.121 16.121 0 0 0 3.612 6.038c3 3.041 6.427 3.258 9.563.572a14.568 14.568 0 0 0 4.163-6.441 2.178 2.178 0 0 1 .665-1.084 3.741 3.741 0 0 0 1.548-4.531c-1.27.427-1.469-.37-1.579-1.375a10.727 10.727 0 0 0-.476-2.04c-.554-1.751-.317-2.207 1.485-2.669zm-3.121 17.613c-5.036 5.225-8.464 5.215-14.345.016-2.565 1.5-5.187 2.941-7.719 4.53a7.364 7.364 0 0 0-3.6 5.362 62.573 62.573 0 0 0-.235 6.531c-.029 1.51.064 1.581 1.558 1.582H31.2c-2.709-5.539-1.72-10.218 3.086-14.072zM39.83 47.87a8.608 8.608 0 1 0-8.6-8.614 8.588 8.588 0 0 0 8.6 8.614zm-9.442-37.03c.572 1.236.351 2.675 1.812 3.326.354.158.6.861.653 1.34a5.589 5.589 0 0 1-2.045 5.427 1.41 1.41 0 0 0-.43.468c-.641 1.359-1.261 2.728-1.915 4.154l6.882 3.96a2.105 2.105 0 0 0 .281.176 1.011 1.011 0 0 0 .508.133c1-.246 2-.525 3.11-.825-1.234-.8-2.368-1.549-3.529-2.257-.2-.124-.521-.055-.785-.082-.39-.039-.78-.083-1.17-.125.107-.379.093-.891.34-1.117a12.08 12.08 0 0 0 3.21-4.977 1.493 1.493 0 0 1 .549-.766c1.157-.664 1.213-1.717 1.2-2.908-.989.064-1.309-.409-1.33-1.272a5.808 5.808 0 0 0-.372-1.5c-.425-1.382-.305-1.679.982-2.325a6.512 6.512 0 0 0-6.751-4.395c.2.561.418 1.1.6 1.652.642 2.001.386 2.302-1.8 1.912z" fill="#2b446c"/><path data-name="Path 426" d="M15.881 8.843c-.272.41-.579.893-.907 1.361-.313.447-.7 1.044-1.258.521-.229-.216-.172-1.018.045-1.381 1.49-2.5 1.6-2.522 4.242-1.306a15.441 15.441 0 0 0 6.731 1.408 3.98 3.98 0 0 1 1.187.026 3.914 3.914 0 0 1 .961.651c-.313.272-.637.79-.937.776a38.086 38.086 0 0 1-5.594-.5 32.521 32.521 0 0 1-4.47-1.556z" fill="#2b446c"/><path data-name="Path 427" d="M41.035 45.128l-.953 1.231-1.038-1.225.24-.243a3.323 3.323 0 0 1-2.758-1.856 2.012 2.012 0 0 1-.233-1.04 2.924 2.924 0 0 1 .534-.915c.3.234.808.422.873.709a1.762 1.762 0 0 0 1.618 1.541 6.193 6.193 0 0 1 .032-1.517 1.177 1.177 0 0 1 .729-.719c.176-.042.614.376.68.648a6.969 6.969 0 0 1 .032 1.556c1.059-.136 1.591-.676 1.552-1.59a1.452 1.452 0 0 0-1.569-1.463c-.29-.012-.58-.009-.87-.011-2.1-.009-3.456-1-3.631-2.661-.191-1.809.838-3.044 2.739-3.669l1.1-1.261 1.115 1.486a2.887 2.887 0 0 1 2.539 2.532c.059.371-.329.813-.512 1.222-.3-.277-.746-.5-.865-.841-.248-.708-.557-1.308-1.359-1.347-1.018-.05-2.145-.418-2.954.552s-.215 2.16 1.239 2.413a5.564 5.564 0 0 1 .03-1.4c.084-.31.443-.546.68-.815.257.254.648.468.737.771a4.9 4.9 0 0 1 .032 1.365c2.12.624 3.091 1.657 3.077 3.207-.013 1.527-.927 2.493-2.836 3.34z" fill="#1d74ce"/></g></svg>