<svg xmlns="http://www.w3.org/2000/svg" width="50" height="50" viewBox="0 0 50 50"><path data-name="Rectangle 188" fill="none" d="M0 0h50v50H0z"/><g data-name="Group 302"><g data-name="Group 301"><path data-name="Path 448" d="M47.367 48.038h-2.142V16.794a2.634 2.634 0 0 0-2.625-2.637h-4.788a2.634 2.634 0 0 0-2.625 2.637v31.244h-5.438V30.95a2.634 2.634 0 0 0-2.625-2.637h-4.788a2.634 2.634 0 0 0-2.625 2.637v17.088h-5.439v-8.85a2.634 2.634 0 0 0-2.625-2.637H6.859a2.634 2.634 0 0 0-2.625 2.637v8.85H1.977a.981.981 0 0 0 0 1.962h45.39a.981.981 0 0 0 0-1.962zm-35.048 0H6.187v-8.85a.674.674 0 0 1 .672-.675h4.787a.674.674 0 0 1 .672.675v8.85zm15.477 0h-6.132V30.95a.674.674 0 0 1 .672-.675h4.788a.674.674 0 0 1 .672.675zm15.477 0H37.14V16.794a.674.674 0 0 1 .672-.675h4.787a.674.674 0 0 1 .672.675v31.244z" fill="#2b446c"/></g></g><g data-name="Group 304"><g data-name="Group 303"><path data-name="Path 449" d="M45.259 1.015A.962.962 0 0 0 44.246 0h-5.887a.966.966 0 1 0 0 1.931h3.606l-9.543 9.543-3.6-3.6a.965.965 0 0 0-1.365 0L10.106 25.228a.965.965 0 0 0 1.365 1.365L28.142 9.922l3.6 3.6a.965.965 0 0 0 1.365 0L43.331 3.3v3.26a.966.966 0 1 0 1.931 0v-5.5l-.003-.045z" fill="#1d74ce"/></g></g><g data-name="Group 306"><g data-name="Group 305"><circle data-name="Ellipse 31" cx=".965" cy=".965" r=".965" fill="#1d74ce" transform="translate(6.023 28.657)"/></g></g></svg>