<svg xmlns="http://www.w3.org/2000/svg" width="50" height="50.172" viewBox="0 0 50 50.172"><path data-name="Rectangle 187" fill="none" d="M0 .172h50v50H0z"/><g data-name="Group 299"><path data-name="Path 438" d="M16.903 50c-.457-.482-.95-.968-.616-1.708s1.011-.73 1.7-.724c1.883.016 3.765.005 5.724.005v-4.1H8.737c-1.951 0-2.738-.792-2.739-2.745q-.005-10.14 0-20.28c0-1.923.807-2.725 2.758-2.735 2.259-.011 4.517 0 6.776-.007.859 0 1.611.139 1.608 1.191 0 1.029-.756 1.237-1.6 1.24-2.323.009-4.646 0-7.024 0v20.856h32.989V20.139h-2.956c-1.444 0-2.889.025-4.332-.017-.791-.023-1.362-.4-1.331-1.283.03-.83.578-1.126 1.341-1.127 2.481 0 4.962-.023 7.442.011a2.23 2.23 0 0 1 2.345 2.366c.029 2.046.009 4.092.01 6.139v14.58c0 1.847-.832 2.661-2.714 2.664q-6.887.01-13.774 0h-1.241v4.1h4.833a3.42 3.42 0 0 1 .994.017c.554.177 1.412.355 1.524.719.145.468-.32 1.119-.522 1.691z" fill="#2b446c"/><path data-name="Path 439" d="M25.782 0c1.38.63 2.509 1.48 2.638 3.148A3.419 3.419 0 1 1 23.588.336c.222-.107.439-.224.659-.336zm.664 3.417c-.69-.456-1.1-.934-1.478-.913-.329.018-.917.657-.867.925a1.458 1.458 0 0 0 .974.946c.3.055.707-.467 1.371-.958z" fill="#1d74ce"/><path data-name="Path 440" d="M21.024 20.446v7.781c0 .256-.006.511 0 .767.017.816-.352 1.4-1.177 1.417s-1.211-.561-1.207-1.381V12.919c0-1.9-.274-2.135-2.118-2.19a2.384 2.384 0 0 0-2.353 1.044 3.28 3.28 0 0 1-4.935.147 3.424 3.424 0 0 1 .227-5.051 3.347 3.347 0 0 1 4.918.6 1.712 1.712 0 0 0 1.779.851 8.939 8.939 0 0 1 2.072.088 3.646 3.646 0 0 1 2.79 3.822c.022 2.736.004 5.476.004 8.216zM11.702 8.12c-.486.619-1.039 1.032-.98 1.318.083.4.62.715.963 1.066.315-.333.841-.642.884-1.008.041-.337-.437-.736-.867-1.377z" fill="#1d74ce"/><path data-name="Path 441" d="M29.005 20.402c0-2.7-.013-5.4 0-8.1.016-2.563 1.457-3.978 4.017-3.989a5.6 5.6 0 0 0 1.308-.023 2.009 2.009 0 0 0 1.093-.611 3.45 3.45 0 0 1 6.373 1.817 3.443 3.443 0 0 1-2.445 3.271 3.4 3.4 0 0 1-3.917-1.416 2.014 2.014 0 0 0-1.11-.578 5.507 5.507 0 0 0-1.309-.021c-1.211.017-1.625.414-1.632 1.658-.016 2.628 0 5.257-.005 7.885 0 2.884.009 5.768-.008 8.651-.006.989-.575 1.584-1.348 1.449-.869-.152-1.028-.792-1.025-1.556.015-2.812.008-5.626.008-8.437zm9.353-12.286c-.445.632-.931 1.019-.9 1.358.035.367.552.688.858 1.029.352-.343.9-.64.991-1.043.068-.285-.476-.712-.944-1.344z" fill="#1d74ce"/><path data-name="Path 442" d="M24.758 11.97c-.316-.471-.821-.912-.9-1.421-.111-.69.448-1.14 1.146-1.139.749 0 1.307.463 1.176 1.218-.084.483-.58.9-.891 1.339z" fill="#2b446c"/><path data-name="Path 443" d="M26.411 15.651c-.439.334-.837.841-1.328.96-.7.17-1.191-.344-1.254-1.05a1.063 1.063 0 0 1 1.16-1.27c.489.047.933.566 1.4.874z" fill="#2b446c"/><path data-name="Path 444" d="M24.762 21.714c-.318-.479-.9-.972-.874-1.432a1.128 1.128 0 0 1 2.253-.02c.032.461-.54.963-.849 1.447z" fill="#2b446c"/><path data-name="Path 445" d="M24.607 23.957c1.137.057 1.586.47 1.6 1.23a1.1 1.1 0 0 1-1.153 1.179c-.732.015-1.317-.439-1.2-1.2.071-.484.553-.907.753-1.209z" fill="#2b446c"/><path data-name="Path 446" d="M25.288 28.669c.311.449.8.867.889 1.356.125.707-.42 1.169-1.125 1.181-.759.014-1.33-.45-1.2-1.214.083-.482.6-.889.926-1.329z" fill="#2b446c"/><path data-name="Path 447" d="M24.823 36.243c-.339-.429-.879-.819-.971-1.3-.143-.742.381-1.241 1.162-1.238.709 0 1.261.433 1.159 1.141-.07.49-.549.921-.846 1.378z" fill="#2b446c"/></g></svg>