<svg xmlns="http://www.w3.org/2000/svg" width="50.037" height="50" viewBox="0 0 50.037 50"><path data-name="Rectangle 185" fill="none" d="M0 0h50v50H0z"/><g data-name="Group 283"><g data-name="Group 282"><path data-name="Path 428" d="M50.037 20.071a.7.7 0 0 0-.005-.073v-.028c0-.009-.008-.043-.014-.064s0-.018-.007-.027a.7.7 0 0 0-.025-.07l-.006-.015a.711.711 0 0 0-.043-.081l-.008-.012a.707.707 0 0 0-.045-.062l-.018-.021a.661.661 0 0 0-.045-.047l-.022-.02-.017-.016-4.4-3.62V7.932a2.514 2.514 0 0 0-2.511-2.511H32.607L26.808.654a2.728 2.728 0 0 0-3.543 0l-5.8 4.768H7.212a2.514 2.514 0 0 0-2.511 2.51v7.984L.297 19.537l-.016.014-.025.023-.041.043-.02.024a.59.59 0 0 0-.041.057l-.011.017a.717.717 0 0 0-.042.079l-.008.021a.488.488 0 0 0-.023.064l-.008.03-.013.06c-.004.02 0 .021 0 .032V39.76a.712.712 0 1 0 1.424 0V21.528l16.139 12.34L1.486 47.127a1.687 1.687 0 0 1-.024-.275V44.26a.713.713 0 1 0-1.425 0v2.593a3.1 3.1 0 0 0 .581 1.807l.02.031.018.022q.061.082.127.159l.051.059c.045.05.09.1.138.146l.02.021.006.006c.042.04.085.08.133.121l.008.007.043.035.019.015c.022.018.044.037.067.054l.009.007.022.015c.055.041.112.08.169.118l.056.036q.093.058.189.109l.019.011.028.014.069.034.06.028.032.014.036.015.016.007.081.033.03.012h.013l.09.031.059.02h.006c.053.016.107.031.161.045h.006l.042.01.03.006.092.02h.007l.061.011h.01l.1.015h.016l.065.008h.006l.1.009h.072c.059 0 .119.005.179.005H46.87c.06 0 .12 0 .179-.005h.069l.105-.01h.005l.067.006h.01l.1-.015h.012l.06-.011h.008l.094-.02.03-.006.039-.009h.006a2.95 2.95 0 0 0 .161-.045h.008a2.46 2.46 0 0 0 .129-.044h.013l.023-.008.033-.013.042-.017.061-.025.024-.01.04-.018.055-.026.075-.037.026-.013.019-.011c.063-.033.124-.069.183-.106l.06-.038c.057-.037.112-.075.166-.116l.023-.016.009-.007a1.78 1.78 0 0 0 .067-.055l.019-.015.044-.036.012-.01.046-.042.012-.011.063-.057.007-.007.022-.024c.048-.047.094-.1.138-.145l.053-.061q.066-.078.128-.16l.018-.023.021-.031a3.1 3.1 0 0 0 .583-1.82V20.071zM4.701 22.21l-2.806-2.143 2.806-2.307zm40.673-4.45l2.805 2.306-2.805 2.144zM24.17 1.754a1.3 1.3 0 0 1 1.733 0l4.461 3.667H19.709zM6.125 23.298V7.932a1.088 1.088 0 0 1 1.087-1.086h35.65a1.088 1.088 0 0 1 1.087 1.087v15.365L26.567 36.58a2.742 2.742 0 0 1-2.71.205 2.467 2.467 0 0 1-.35-.205zm41.595 25.05l-.028.016q-.067.035-.137.065l-.018.007a1.747 1.747 0 0 1-.3.093l-.024.005c-.049.01-.1.017-.15.023h-.035c-.052 0-.1.008-.157.008H3.204c-.053 0-.105 0-.157-.008h-.034q-.076-.008-.15-.023l-.026-.005a1.754 1.754 0 0 1-.3-.092l-.019-.008q-.071-.03-.139-.066l-.017-.009c-.025-.013-.048-.029-.072-.043L18.775 34.76l3.878 2.963.02.014a4.135 4.135 0 0 0 4.73 0l.02-.014 3.876-2.963 16.486 13.55c-.022.013-.048.027-.065.039zm.893-1.5a1.7 1.7 0 0 1-.024.275L32.461 33.869l16.152-12.341z" fill="#2b446c"/></g></g><g data-name="Group 285"><g data-name="Group 284"><path data-name="Path 429" d="M37.387 25.838h-24.7a.74.74 0 1 0 0 1.479h24.7a.74.74 0 1 0 0-1.479z" fill="#2b446c"/></g></g><g data-name="Group 287"><g data-name="Group 286"><path data-name="Path 430" d="M38.806 21.285h-2.887a.74.74 0 0 0 0 1.479h2.887a.74.74 0 0 0 0-1.479z" fill="#2b446c"/></g></g><g data-name="Group 289"><g data-name="Group 288"><path data-name="Path 431" d="M31.942 21.285H11.034a.74.74 0 1 0 0 1.479h20.908a.74.74 0 1 0 0-1.479z" fill="#2b446c"/></g></g><g data-name="Group 291"><g data-name="Group 290"><path data-name="Path 432" d="M18.513 10.535h-4.686c-.342 0-.521.336-.521.668 0 .394.219.68.521.68h1.624v6.638c0 .307.3.521.725.521.36 0 .725-.179.725-.521v-6.638h1.613c.307 0 .521-.284.521-.691-.001-.317-.164-.657-.522-.657z" fill="#1d74ce"/></g></g><g data-name="Group 293"><g data-name="Group 292"><path data-name="Path 433" d="M27.761 18.282l-2.237-7.32a.877.877 0 0 0-.888-.493.867.867 0 0 0-.877.5l-2.246 7.314a.426.426 0 0 0-.018.142c0 .367.459.623.871.623a.5.5 0 0 0 .539-.34l.437-1.512h2.6l.437 1.515a.5.5 0 0 0 .527.337c.417 0 .883-.266.883-.623a.435.435 0 0 0-.028-.143zm-4.086-2.3l.961-3.3.961 3.3z" fill="#1d74ce"/></g></g><g data-name="Group 295"><g data-name="Group 294"><path data-name="Path 434" d="M36.675 18.062l-1.917-3.28 1.862-3.258a.744.744 0 0 0 .106-.355c0-.394-.459-.668-.871-.668a.624.624 0 0 0-.562.4l-1.469 2.687-1.448-2.685a.637.637 0 0 0-.563-.406c-.418 0-.883.274-.883.668a.744.744 0 0 0 .107.356l1.861 3.257-1.921 3.287a.662.662 0 0 0-.081.294c0 .4.489.713.894.713a.6.6 0 0 0 .495-.337l1.539-2.8 1.558 2.8a.571.571 0 0 0 .485.341c.419 0 .905-.312.905-.713a.69.69 0 0 0-.097-.301z" fill="#1d74ce"/></g></g></svg>