<svg xmlns="http://www.w3.org/2000/svg" width="50" height="50" viewBox="0 0 50 50">
  <g id="ic-accounting" transform="translate(-918 -55)">
    <rect id="Rectangle_183" data-name="Rectangle 183" width="50" height="50" transform="translate(918 55)" fill="none"/>
    <g id="Group_278" data-name="Group 278" transform="translate(42.888 -144.163)">
      <path id="Path_394" data-name="Path 394" d="M890.146,202.985c.628-2.314,1.993-3.716,4.2-3.816,2.492-.113,3.939,1.437,4.662,3.816,3.353,0,6.674,0,9.995,0,2.174,0,2.925.753,2.93,2.929q.011,4.79,0,9.581c0,.4-.048.8-.078,1.262h-1.346c0-3.419,0-6.784,0-10.149,0-2.095,0-2.1-2.1-2.1-1.523,0-3.045,0-4.815,0,0,.794.02,1.5,0,2.2-.051,1.486-.8,2.356-2.21,2.368q-6.8.058-13.61,0a2.2,2.2,0,0,1-2.322-2.312c-.045-.676-.008-1.358-.008-2.221-2.07,0-4.068-.03-6.063.037-.257.008-.557.483-.725.8a1.9,1.9,0,0,0-.037.81c0,12.228.013,24.456-.022,36.684,0,1.282.34,1.752,1.677,1.735,5.479-.071,10.959-.03,16.44-.03h1.551V246c-.444.029-.837.077-1.231.077q-8.49.007-16.979,0c-2.168,0-2.937-.77-2.938-2.936q-.007-18.548,0-37.095c0-2.264.777-3.054,2.993-3.058C883.427,202.98,886.747,202.985,890.146,202.985Zm-3.2,1.553c0,.661.029,1.117-.006,1.568-.084,1.094.321,1.541,1.468,1.525,4.13-.056,8.262-.041,12.393-.007.963.008,1.444-.293,1.364-1.329-.044-.569-.008-1.144-.008-1.822h-4.466c-.332-2.585-1.139-3.624-2.855-3.771-1.848-.158-2.632.656-3.62,3.836Z" transform="translate(0 0)" fill="#2b446c"/>
      <path id="Path_395" data-name="Path 395" d="M961.724,284.771q0-6.533,0-13.066c0-1.846.293-2.157,2.086-2.16q9.227-.013,18.453,0c1.716,0,2.147.44,2.148,2.157q.009,12.931,0,25.861c0,1.776-.473,2.263-2.206,2.264q-9.159.009-18.318,0c-1.737,0-2.159-.419-2.162-2.127Q961.715,291.237,961.724,284.771Zm1.5-13.716V298.21h19.587V271.055Z" transform="translate(-61.123 -50.671)" fill="#2b446c"/>
      <path id="Path_396" data-name="Path 396" d="M910.5,307.218a6.775,6.775,0,1,1-6.7-6.794A6.731,6.731,0,0,1,910.5,307.218ZM903,302.025a5.271,5.271,0,0,0,1.219,10.471c2.588-.239,4.673-2.294,4.549-4.609H903Zm5.884,4.406a4.667,4.667,0,0,0-4.3-4.318v4.318Z" transform="translate(-14.49 -73.398)" fill="#1d74ce"/>
      <path id="Path_401" data-name="Path 401" d="M991.059,283.978v7.268H976.116v-7.268Zm-1.528,5.869v-4.422H977.559v4.422Z" transform="translate(-71.635 -61.549)" fill="#1d74ce"/>
      <path id="Path_402" data-name="Path 402" d="M1027.657,362.524l.074,1.332-1.44.1c-.025-.513-.045-.931-.07-1.437Z" transform="translate(-108.23 -118.583)" fill="#2b446c"/>
      <path id="Path_403" data-name="Path 403" d="M1011.168,363.829h-1.425v-1.376h1.345C1011.112,362.873,1011.137,363.293,1011.168,363.829Z" transform="translate(-96.322 -118.532)" fill="#2b446c"/>
      <path id="Path_404" data-name="Path 404" d="M999.378,363.618h-1.332c-.022-.449-.041-.836-.066-1.355l1.4-.093Z" transform="translate(-87.779 -118.325)" fill="#2b446c"/>
      <path id="Path_405" data-name="Path 405" d="M999.6,330.318h-1.338v-1.3H999.6Z" transform="translate(-87.984 -94.313)" fill="#2b446c"/>
      <path id="Path_406" data-name="Path 406" d="M1009.691,330v-1.287l1.328-.1V330Z" transform="translate(-96.286 -94.016)" fill="#2b446c"/>
      <path id="Path_407" data-name="Path 407" d="M1027.65,328.638V330l-1.375.094c-.03-.459-.054-.839-.087-1.356Z" transform="translate(-108.206 -94.031)" fill="#2b446c"/>
      <path id="Path_408" data-name="Path 408" d="M999.488,341.237H998.06c-.024-.413-.046-.793-.075-1.288l1.423-.082C999.435,340.331,999.457,340.707,999.488,341.237Z" transform="translate(-87.782 -102.187)" fill="#2b446c"/>
      <path id="Path_409" data-name="Path 409" d="M1010.9,339.827v1.349l-1.378.084c-.029-.461-.053-.837-.084-1.327Z" transform="translate(-96.1 -102.157)" fill="#2b446c"/>
      <path id="Path_410" data-name="Path 410" d="M1027.716,341.234h-1.43c-.025-.414-.048-.789-.078-1.281l1.425-.087C1027.661,340.333,1027.684,340.709,1027.716,341.234Z" transform="translate(-108.22 -102.187)" fill="#2b446c"/>
      <path id="Path_411" data-name="Path 411" d="M987.237,362.474h1.254v1.361h-1.254Z" transform="translate(-79.979 -118.547)" fill="#2b446c"/>
      <path id="Path_412" data-name="Path 412" d="M977.2,363.608h-1.342c-.033-.422-.065-.839-.1-1.355l1.337-.118C977.126,362.627,977.157,363.046,977.2,363.608Z" transform="translate(-71.636 -118.299)" fill="#2b446c"/>
      <path id="Path_413" data-name="Path 413" d="M998.24,351.207H999.6V352.5H998.24Z" transform="translate(-87.969 -110.318)" fill="#2b446c"/>
      <path id="Path_414" data-name="Path 414" d="M1009.573,351.033l1.284-.059v1.336C1009.713,352.61,1009.2,352.322,1009.573,351.033Z" transform="translate(-96.111 -110.148)" fill="#2b446c"/>
      <path id="Path_415" data-name="Path 415" d="M1026.46,352.6v-1.373h1.334v1.31Z" transform="translate(-108.405 -110.33)" fill="#2b446c"/>
      <path id="Path_416" data-name="Path 416" d="M976.177,328.937h1.239v1.284l-1.239.095Z" transform="translate(-71.947 -94.249)" fill="#2b446c"/>
      <path id="Path_417" data-name="Path 417" d="M988.492,352.362h-1.521l-.122-1.3c.4-.029.875-.2,1.035-.045A4.456,4.456,0,0,1,988.492,352.362Z" transform="translate(-79.693 -110.133)" fill="#2b446c"/>
      <path id="Path_418" data-name="Path 418" d="M977.422,352.571h-1.235v-1.322h1.235Z" transform="translate(-71.954 -110.349)" fill="#2b446c"/>
      <path id="Path_419" data-name="Path 419" d="M987.183,341.2V340c1.053-.294,1.58-.071,1.256,1.195Z" transform="translate(-79.939 -102.204)" fill="#2b446c"/>
      <path id="Path_420" data-name="Path 420" d="M975.911,340.125h1.252v1.214C976.154,341.666,975.612,341.47,975.911,340.125Z" transform="translate(-71.694 -102.375)" fill="#2b446c"/>
      <path id="Path_421" data-name="Path 421" d="M988.486,328.64v1.383h-1.271v-1.289Z" transform="translate(-79.963 -94.033)" fill="#2b446c"/>
      <path id="Path_422" data-name="Path 422" d="M1025.868,289.345Z" transform="translate(-107.972 -65.506)" fill="#2b446c"/>
    </g>
  </g>
</svg>
