<svg xmlns="http://www.w3.org/2000/svg" width="50.001" height="50" viewBox="0 0 50.001 50">
  <g id="ic-audit-risk-advisory" transform="translate(-603.999 -211)">
    <rect id="Rectangle_186" data-name="Rectangle 186" width="50" height="50" transform="translate(604 211)" fill="none"/>
    <g id="Group_297" data-name="Group 297" transform="translate(94.122 -365.5)">
      <path id="Path_435" data-name="Path 435" d="M533.484,577.5c.694.109,1.391.2,2.082.328a21.682,21.682,0,0,1,15.84,11.418,21.251,21.251,0,0,1,2.443,12.607c-.007.068-.023.136-.047.277l-3.329-.387c0-.906.033-1.769-.005-2.628-.313-7.113-3.574-12.508-9.8-15.891a18.525,18.525,0,1,0-5.814,34.614c.422-.069.595.029.66.481.136.941.345,1.872.547,2.925-1.17.1-2.278.276-3.387.283-9.085.055-15.866-3.923-20.265-11.831a19.874,19.874,0,0,1-2.382-12.194c1.09-9.217,6.1-15.445,14.728-18.776A18.34,18.34,0,0,1,530,577.61a2.038,2.038,0,0,0,.393-.11Z" transform="translate(0)" fill="#2b446c"/>
      <path id="Path_436" data-name="Path 436" d="M563.307,654.624l2.569-2.29,4.83,4.671,10.934-10.937L584,648.446l-13.315,13.315Z" transform="translate(-41.913 -53.847)" fill="#1d74ce"/>
      <path id="Path_437" data-name="Path 437" d="M665.113,725.066l-1.216,1.209-7.994-8c-.528.347-.953.684-1.426.929a6.735,6.735,0,0,1-7.575-.518,7.009,7.009,0,1,1,9.889-9.691,6.753,6.753,0,0,1,.368,7.584.518.518,0,0,0,.1.749q3.677,3.648,7.333,7.317C664.74,724.787,664.916,724.906,665.113,725.066Zm-8.71-11.995a5.319,5.319,0,1,0-10.638-.032,5.319,5.319,0,1,0,10.638.032Z" transform="translate(-105.235 -100.804)" fill="#2b446c"/>
    </g>
  </g>
</svg>
