<svg xmlns="http://www.w3.org/2000/svg" width="50" height="50.001" viewBox="0 0 50 50.001">
  <g id="ic-business-intelligence" transform="translate(-447 -55)">
    <rect id="Rectangle_175" data-name="Rectangle 175" width="50" height="50" transform="translate(447 55)" fill="none"/>
    <g id="innovation" transform="translate(400.808 55)">
      <g id="Group_245" data-name="Group 245" transform="translate(60.519 9.327)">
        <g id="Group_244" data-name="Group 244">
          <path id="Path_376" data-name="Path 376" d="M167.008,103.836H164.79a7.717,7.717,0,0,0-.516-1.245l1.568-1.568a1.038,1.038,0,0,0,0-1.468L164,97.708a1.039,1.039,0,0,0-1.468,0l-1.568,1.568a7.71,7.71,0,0,0-1.245-.516V96.543a1.039,1.039,0,0,0-1.038-1.038h-2.611a1.039,1.039,0,0,0-1.038,1.038v2.218a7.719,7.719,0,0,0-1.246.516l-1.569-1.569a1.039,1.039,0,0,0-1.468,0L148.9,99.554a1.038,1.038,0,0,0,0,1.468l1.568,1.568a7.711,7.711,0,0,0-.516,1.245h-2.218a1.039,1.039,0,0,0-1.038,1.038v2.611a1.039,1.039,0,0,0,1.038,1.038h2.218a7.716,7.716,0,0,0,.516,1.245l-1.568,1.568a1.039,1.039,0,0,0,0,1.468l1.846,1.846a1.039,1.039,0,0,0,1.468,0l1.568-1.568a7.712,7.712,0,0,0,1.246.516v2.218a1.039,1.039,0,0,0,1.038,1.038h2.61a1.039,1.039,0,0,0,1.038-1.038V113.6a7.715,7.715,0,0,0,1.245-.516l1.568,1.568a1.039,1.039,0,0,0,1.468,0l1.846-1.846a1.038,1.038,0,0,0,0-1.468l-1.568-1.568a7.71,7.71,0,0,0,.516-1.245h2.218a1.039,1.039,0,0,0,1.038-1.038v-2.611A1.039,1.039,0,0,0,167.008,103.836Zm-.427,3.221h-2.35a.732.732,0,0,0-.713.566,6.262,6.262,0,0,1-.779,1.882.733.733,0,0,0,.1.9l1.661,1.661-1.242,1.242-1.661-1.661a.732.732,0,0,0-.9-.1,6.268,6.268,0,0,1-1.881.779.732.732,0,0,0-.566.713v2.35h-1.756v-2.35a.732.732,0,0,0-.566-.713,6.26,6.26,0,0,1-1.882-.779.733.733,0,0,0-.9.1l-1.661,1.661-1.242-1.242,1.661-1.661a.733.733,0,0,0,.1-.9,6.265,6.265,0,0,1-.779-1.882.732.732,0,0,0-.713-.566h-2.35V105.3h2.35a.732.732,0,0,0,.713-.566,6.265,6.265,0,0,1,.779-1.882.733.733,0,0,0-.1-.9l-1.661-1.661,1.242-1.242,1.661,1.661a.732.732,0,0,0,.9.1,6.263,6.263,0,0,1,1.882-.779.732.732,0,0,0,.566-.713V96.97h1.756v2.35a.732.732,0,0,0,.566.713,6.266,6.266,0,0,1,1.882.779.733.733,0,0,0,.9-.1l1.661-1.661,1.242,1.242-1.661,1.661a.732.732,0,0,0-.1.9,6.266,6.266,0,0,1,.779,1.882.732.732,0,0,0,.713.566h2.35Z" transform="translate(-146.697 -95.505)" fill="#1d74ce"/>
        </g>
      </g>
      <g id="Group_247" data-name="Group 247" transform="translate(67.269 16.077)">
        <g id="Group_246" data-name="Group 246" transform="translate(0)">
          <path id="Path_377" data-name="Path 377" d="M219.744,164.628a3.924,3.924,0,1,0,3.924,3.924A3.928,3.928,0,0,0,219.744,164.628Zm0,6.383a2.459,2.459,0,1,1,2.459-2.459A2.462,2.462,0,0,1,219.744,171.011Z" transform="translate(-215.82 -164.628)" fill="#2b446c"/>
        </g>
      </g>
      <g id="Group_249" data-name="Group 249" transform="translate(51.192 19.269)">
        <g id="Group_248" data-name="Group 248" transform="translate(0)">
          <path id="Path_378" data-name="Path 378" d="M54.354,197.308h-2.43a.732.732,0,1,0,0,1.465h2.43a.732.732,0,0,0,0-1.465Z" transform="translate(-51.192 -197.308)" fill="#2b446c"/>
        </g>
      </g>
      <g id="Group_251" data-name="Group 251" transform="translate(87.3 19.269)">
        <g id="Group_250" data-name="Group 250" transform="translate(0)">
          <path id="Path_379" data-name="Path 379" d="M424.089,197.308h-2.43a.732.732,0,1,0,0,1.465h2.43a.732.732,0,0,0,0-1.465Z" transform="translate(-420.927 -197.308)" fill="#2b446c"/>
        </g>
      </g>
      <g id="Group_253" data-name="Group 253" transform="translate(56.836 31.176)">
        <g id="Group_252" data-name="Group 252" transform="translate(0)">
          <path id="Path_380" data-name="Path 380" d="M111.95,319.447a.733.733,0,0,0-1.036,0l-1.718,1.718a.732.732,0,0,0,1.036,1.036l1.718-1.718A.733.733,0,0,0,111.95,319.447Z" transform="translate(-108.981 -319.232)" fill="#2b446c"/>
        </g>
      </g>
      <g id="Group_255" data-name="Group 255" transform="translate(82.368 5.644)">
        <g id="Group_254" data-name="Group 254">
          <path id="Path_381" data-name="Path 381" d="M373.392,58.006a.733.733,0,0,0-1.036,0l-1.718,1.718a.732.732,0,1,0,1.036,1.036l1.718-1.718A.732.732,0,0,0,373.392,58.006Z" transform="translate(-370.423 -57.791)" fill="#2b446c"/>
        </g>
      </g>
      <g id="Group_257" data-name="Group 257" transform="translate(70.461)">
        <g id="Group_256" data-name="Group 256">
          <path id="Path_382" data-name="Path 382" d="M249.233,0a.732.732,0,0,0-.732.732v2.43a.732.732,0,1,0,1.465,0V.732A.732.732,0,0,0,249.233,0Z" transform="translate(-248.501 0)" fill="#2b446c"/>
        </g>
      </g>
      <g id="Group_259" data-name="Group 259" transform="translate(82.368 31.176)">
        <g id="Group_258" data-name="Group 258">
          <path id="Path_383" data-name="Path 383" d="M373.392,321.165l-1.718-1.718a.732.732,0,1,0-1.036,1.036l1.718,1.718a.732.732,0,0,0,1.036-1.036Z" transform="translate(-370.423 -319.232)" fill="#2b446c"/>
        </g>
      </g>
      <g id="Group_261" data-name="Group 261" transform="translate(56.836 5.644)">
        <g id="Group_260" data-name="Group 260" transform="translate(0)">
          <path id="Path_384" data-name="Path 384" d="M111.95,59.724l-1.718-1.718a.732.732,0,0,0-1.036,1.036l1.718,1.718a.732.732,0,0,0,1.036-1.036Z" transform="translate(-108.981 -57.791)" fill="#2b446c"/>
        </g>
      </g>
      <g id="Group_263" data-name="Group 263" transform="translate(72.17 5.327)">
        <g id="Group_262" data-name="Group 262">
          <path id="Path_385" data-name="Path 385" d="M279.635,67.425A14.73,14.73,0,0,0,266.82,54.551a.732.732,0,1,0-.177,1.454A13.192,13.192,0,0,1,278.18,67.6a.733.733,0,0,0,.727.647.757.757,0,0,0,.086,0A.732.732,0,0,0,279.635,67.425Z" transform="translate(-265.999 -54.545)" fill="#2b446c"/>
        </g>
      </g>
      <g id="Group_265" data-name="Group 265" transform="translate(56.479 5.328)">
        <g id="Group_264" data-name="Group 264">
          <path id="Path_386" data-name="Path 386" d="M134,70.212a.732.732,0,0,0-.819.635,13.2,13.2,0,0,1-6.108,9.548,4.928,4.928,0,0,0-2.329,4.191V87.6h-9.413V84.519a4.823,4.823,0,0,0-2.257-4.08,13.25,13.25,0,0,1,5.344-24.424.732.732,0,1,0-.18-1.454,14.714,14.714,0,0,0-5.935,27.123,3.348,3.348,0,0,1,1.563,2.834v3.188a1.906,1.906,0,0,0-1.282,1.8v1.044A1.894,1.894,0,0,0,113,91.721a1.893,1.893,0,0,0-.406,1.172v1.044a1.907,1.907,0,0,0,1.9,1.9h2.3V97.5a1.734,1.734,0,0,0,1.732,1.732h3.027a1.734,1.734,0,0,0,1.732-1.732V95.841h2.3a1.907,1.907,0,0,0,1.9-1.9V92.893a1.893,1.893,0,0,0-.406-1.172,1.893,1.893,0,0,0,.406-1.172V89.5a1.906,1.906,0,0,0-1.282-1.8V84.586a3.47,3.47,0,0,1,1.643-2.95,14.658,14.658,0,0,0,6.782-10.6A.732.732,0,0,0,134,70.212ZM121.823,97.5a.271.271,0,0,1-.267.267h-3.027a.271.271,0,0,1-.267-.267V95.841h3.562Zm4.207-3.56a.445.445,0,0,1-.439.439h-11.1a.445.445,0,0,1-.439-.439V92.893a.445.445,0,0,1,.439-.439h11.1a.445.445,0,0,1,.439.439Zm0-3.388a.445.445,0,0,1-.439.439h-11.1a.445.445,0,0,1-.439-.439V89.5a.445.445,0,0,1,.439-.439h11.1a.445.445,0,0,1,.439.439Z" transform="translate(-105.328 -54.556)" fill="#2b446c"/>
        </g>
      </g>
    </g>
  </g>
</svg>
