<svg xmlns="http://www.w3.org/2000/svg" width="50" height="50" viewBox="0 0 50 50">
  <g id="ic-corporate-establishment-structuring" transform="translate(-604 -55)">
    <rect id="Rectangle_181" data-name="Rectangle 181" width="50" height="50" transform="translate(604 55)" fill="none"/>
    <g id="hierarchical-structure" transform="translate(604.041 54.955)">
      <g id="Group_268" data-name="Group 268" transform="translate(20.091 24.99)">
        <g id="Group_267" data-name="Group 267">
          <path id="Path_387" data-name="Path 387" d="M210.125,264.408V253.945h-1.611v10.463h-4.018v1.611h9.648v-1.611Z" transform="translate(-204.495 -253.945)" fill="#1d74ce"/>
        </g>
      </g>
      <g id="Group_270" data-name="Group 270" transform="translate(14.403 0.045)">
        <g id="Group_269" data-name="Group 269" transform="translate(0 0)">
          <path id="Path_388" data-name="Path 388" d="M166.042,13.908a8.636,8.636,0,0,0-5.531-3.262,7.249,7.249,0,0,0,2.24-5.02,5.63,5.63,0,0,0-11.259,0,7.231,7.231,0,0,0,2.24,5.02,8.612,8.612,0,0,0-5.531,3.262,8.514,8.514,0,0,0-1.523,6.347l.364,3.124H167.2l.363-3.124A8.471,8.471,0,0,0,166.042,13.908ZM153.093,5.616a4.019,4.019,0,0,1,8.037,0c0,2.2-1.857,4.883-4.018,4.883S153.093,7.816,153.093,5.616Zm12.861,14.442-.2,1.71h-3.016V17.739H161.13v4.028h-8.037V17.739h-1.611v4.028h-3.016l-.2-1.71a6.885,6.885,0,0,1,1.208-5.2,7.172,7.172,0,0,1,5.787-2.751h3.694a7.2,7.2,0,0,1,5.787,2.751A6.863,6.863,0,0,1,165.954,20.058Z" transform="translate(-146.6 -0.045)" fill="#2b446c"/>
        </g>
      </g>
      <g id="Group_272" data-name="Group 272" transform="translate(0 26.601)">
        <g id="Group_271" data-name="Group 271" transform="translate(0)">
          <path id="Path_389" data-name="Path 389" d="M19.442,284.218a8.559,8.559,0,0,0-5.531-3.272,7.249,7.249,0,0,0,2.24-5.02,5.63,5.63,0,0,0-11.259,0,7.231,7.231,0,0,0,2.24,5.02A8.612,8.612,0,0,0,1.6,284.208a8.538,8.538,0,0,0-1.523,6.357l.364,3.124H20.6l.364-3.124A8.471,8.471,0,0,0,19.442,284.218ZM6.5,275.926a4.019,4.019,0,0,1,8.037,0c0,2.2-1.857,4.883-4.018,4.883S6.5,278.126,6.5,275.926Zm12.861,14.452-.2,1.709H16.151v-4.028H14.54v4.028H6.5v-4.028H4.892v4.028H1.876l-.2-1.709a6.863,6.863,0,0,1,1.208-5.2,7.172,7.172,0,0,1,5.787-2.751h3.694a7.2,7.2,0,0,1,5.787,2.751A6.863,6.863,0,0,1,19.364,290.378Z" transform="translate(0 -270.345)" fill="#2b446c"/>
        </g>
      </g>
      <g id="Group_274" data-name="Group 274" transform="translate(28.865 26.601)">
        <g id="Group_273" data-name="Group 273">
          <path id="Path_390" data-name="Path 390" d="M313.242,284.208a8.636,8.636,0,0,0-5.531-3.262,7.249,7.249,0,0,0,2.24-5.02,5.63,5.63,0,0,0-11.259,0,7.231,7.231,0,0,0,2.24,5.02,8.611,8.611,0,0,0-5.531,3.262,8.513,8.513,0,0,0-1.523,6.347l.364,3.124H314.4l.364-3.124A8.525,8.525,0,0,0,313.242,284.208ZM300.3,275.925a4.019,4.019,0,0,1,8.037,0c0,2.2-1.857,4.883-4.018,4.883S300.3,278.126,300.3,275.925Zm12.861,14.452-.2,1.709h-3.016v-4.028H308.34v4.028H300.3v-4.028h-1.611v4.028h-3.016l-.2-1.709a6.863,6.863,0,0,1,1.208-5.2,7.172,7.172,0,0,1,5.787-2.751h3.694a7.2,7.2,0,0,1,5.787,2.751A6.864,6.864,0,0,1,313.164,290.378Z" transform="translate(-293.8 -270.345)" fill="#2b446c"/>
        </g>
      </g>
    </g>
  </g>
</svg>
