<svg xmlns="http://www.w3.org/2000/svg" width="50" height="50" viewBox="0 0 50 50">
  <g id="ic-due-diligence" transform="translate(-761 -55)">
    <rect id="Rectangle_182" data-name="Rectangle 182" width="50" height="50" transform="translate(761 55)" fill="none"/>
    <g id="Layer_1" data-name="Layer 1" transform="translate(528.63 -123.219)">
      <g id="Group_276" data-name="Group 276" transform="translate(233.37 178.219)">
        <path id="Path_391" data-name="Path 391" d="M290.939,229.1l.113,1.736c4.45.916,10.939-2.9,13.739-8.072a15.917,15.917,0,0,0,1.581-11.172,16.175,16.175,0,0,0-6.076-9.533l1.525-2.161c7.329,5,11.159,17.33,3.344,27.268,1.029.962,1.621,2.413,3.579,2.081a3.725,3.725,0,0,1,2.564,1.215c2.438,2.338,4.767,4.8,7.109,7.237a3.852,3.852,0,0,1,.127,5.509,3.662,3.662,0,0,1-5.4-.2c-2.391-2.391-4.79-4.776-7.084-7.262a3.735,3.735,0,0,1-1.134-2.5c.26-1.907-.909-2.718-2.074-3.758a18.36,18.36,0,0,1-11.794,4.412c-.067.618-.124,1.153-.209,1.941l-4.813-3.39Z" transform="translate(-271.693 -194.303)" fill="#2b446c"/>
        <path id="Path_392" data-name="Path 392" d="M251.809,180.149l.086-1.93,4.9,3.372-4.846,3.342c-.065-.713-.109-1.2-.153-1.692-4.22-1.07-10.969,2.815-13.764,7.944-3.331,6.113-2.609,14.573,4.524,20.308l-1.451,2.023c-4.66-2.742-8.809-10.056-7.488-17.906C234.829,188.412,240.857,180.669,251.809,180.149Z" transform="translate(-233.37 -178.219)" fill="#2b446c"/>
        <path id="Path_393" data-name="Path 393" d="M283.738,242.7l6.078-6.192,2.342,2.349-8.31,8.286-4.838-4.77,2.8-2.345Z" transform="translate(-266.976 -221.165)" fill="#1d74ce"/>
      </g>
    </g>
  </g>
</svg>
