<svg xmlns="http://www.w3.org/2000/svg" width="50.037" height="50" viewBox="0 0 50.037 50">
  <g id="ic-tax" transform="translate(-447 -211)">
    <rect id="Rectangle_185" data-name="Rectangle 185" width="50" height="50" transform="translate(447 211)" fill="none"/>
    <g id="tax" transform="translate(447.037 210.96)">
      <g id="Group_283" data-name="Group 283" transform="translate(0 0.041)">
        <g id="Group_282" data-name="Group 282" transform="translate(0 0)">
          <path id="Path_428" data-name="Path 428" d="M50,20.111a.7.7,0,0,0-.005-.073c0-.009,0-.019,0-.028s-.008-.043-.014-.064,0-.018-.007-.027a.7.7,0,0,0-.025-.07l-.006-.015a.711.711,0,0,0-.043-.081l-.008-.012a.707.707,0,0,0-.045-.062l-.018-.021c-.014-.016-.029-.032-.045-.047l-.022-.02-.017-.016-4.4-3.62V7.972a2.514,2.514,0,0,0-2.511-2.511H32.57L26.771.694a2.728,2.728,0,0,0-3.543,0l-5.8,4.768H7.175A2.514,2.514,0,0,0,4.664,7.972v7.984L.26,19.577l-.016.014-.025.023c-.014.014-.028.028-.041.043l-.02.024c-.015.018-.028.037-.041.057l-.011.017a.717.717,0,0,0-.042.079l-.008.021c-.009.021-.017.042-.023.064s-.006.02-.008.03-.009.04-.013.06,0,.021,0,.032,0,.045,0,.068c0,.006,0,.012,0,.019V39.8a.712.712,0,1,0,1.424,0V21.568L17.575,33.908,1.449,47.167a1.687,1.687,0,0,1-.024-.275V44.3A.712.712,0,1,0,0,44.3v2.593A3.1,3.1,0,0,0,.581,48.7c.007.01.013.021.02.031l.018.022q.061.082.127.159l.051.059c.045.05.09.1.138.146l.02.021.006.006c.042.04.085.08.133.121l.008.007.043.035.019.015c.022.018.044.037.067.054l.009.007.022.015c.055.041.112.08.169.118l.056.036q.093.058.189.109l.019.011.028.014.069.034h0l.06.028.032.014.036.015.016.007.081.033.03.012.013,0,.09.031.059.02h0l.006,0c.053.016.107.031.161.045l.006,0,.042.01.03.006.092.02.007,0,.061.011h.01l.1.015H2.74l.065.008h.006l.1.009h.024l.048,0h0c.059,0,.119.005.179.005H46.833c.06,0,.12,0,.179-.005h0l.048,0h.021l.105-.01h.005L47.258,50l.01,0,.1-.015.012,0,.06-.011.008,0,.094-.02.03-.006.039-.009.006,0c.054-.014.108-.028.161-.045l.008,0h0c.043-.013.085-.028.129-.044l.013,0,.023-.008.033-.013.042-.017.061-.025.024-.01.04-.018.055-.026h0l.075-.037.026-.013.019-.011c.063-.033.124-.069.183-.106l.06-.038c.057-.037.112-.075.166-.116l.023-.016h0l.009-.007c.023-.018.045-.036.067-.055l.019-.015.044-.036h0l.012-.01.046-.042.012-.011c.021-.019.043-.038.063-.057l.007-.007.022-.024c.048-.047.094-.1.138-.145l.053-.061q.066-.078.128-.16l.018-.023c.007-.01.014-.021.021-.031A3.1,3.1,0,0,0,50,46.892V20.127C50,20.122,50,20.117,50,20.111ZM4.664,22.25,1.858,20.107,4.664,17.8ZM45.337,17.8l2.805,2.306L45.337,22.25ZM24.133,1.794a1.3,1.3,0,0,1,1.733,0l4.461,3.667H19.672ZM6.088,23.338V7.972A1.088,1.088,0,0,1,7.175,6.886H42.825a1.088,1.088,0,0,1,1.087,1.087V23.338L26.53,36.62a2.742,2.742,0,0,1-2.71.205,2.467,2.467,0,0,1-.35-.205Zm41.595,25.05-.028.016q-.067.035-.137.065l-.018.007a1.747,1.747,0,0,1-.3.093l-.024.005c-.049.01-.1.017-.15.023l-.035,0c-.052,0-.1.008-.157.008H3.167c-.053,0-.105,0-.157-.008l-.034,0q-.076-.008-.15-.023L2.8,48.569a1.754,1.754,0,0,1-.3-.092l-.019-.008q-.071-.03-.139-.066l-.017-.009c-.025-.013-.048-.029-.072-.043L18.738,34.8l3.878,2.963.02.014a4.135,4.135,0,0,0,4.73,0l.02-.014L31.262,34.8,47.748,48.35C47.726,48.363,47.7,48.377,47.683,48.389Zm.893-1.5a1.7,1.7,0,0,1-.024.275L32.424,33.909,48.576,21.568Z" transform="translate(0 -0.041)" fill="#2b446c"/>
        </g>
      </g>
      <g id="Group_285" data-name="Group 285" transform="translate(11.913 25.878)">
        <g id="Group_284" data-name="Group 284">
          <path id="Path_429" data-name="Path 429" d="M152.4,264.918H127.7a.74.74,0,1,0,0,1.479H152.4a.74.74,0,1,0,0-1.479Z" transform="translate(-126.963 -264.918)" fill="#2b446c"/>
        </g>
      </g>
      <g id="Group_287" data-name="Group 287" transform="translate(35.143 21.325)">
        <g id="Group_286" data-name="Group 286">
          <path id="Path_430" data-name="Path 430" d="M364.77,218.242h-2.887a.74.74,0,0,0,0,1.479h2.887a.74.74,0,0,0,0-1.479Z" transform="translate(-361.144 -218.242)" fill="#2b446c"/>
        </g>
      </g>
      <g id="Group_289" data-name="Group 289" transform="translate(10.257 21.325)">
        <g id="Group_288" data-name="Group 288">
          <path id="Path_431" data-name="Path 431" d="M129.84,218.241H108.932a.74.74,0,1,0,0,1.479H129.84a.74.74,0,1,0,0-1.479Z" transform="translate(-108.192 -218.241)" fill="#2b446c"/>
        </g>
      </g>
      <g id="Group_291" data-name="Group 291" transform="translate(13.268 10.575)">
        <g id="Group_290" data-name="Group 290">
          <path id="Path_432" data-name="Path 432" d="M141.725,108.729h-4.686c-.342,0-.521.336-.521.668,0,.394.219.68.521.68h1.624v6.638c0,.307.3.521.725.521.36,0,.725-.179.725-.521v-6.638h1.613c.307,0,.521-.284.521-.691C142.246,109.069,142.083,108.729,141.725,108.729Z" transform="translate(-136.517 -108.729)" fill="#1d74ce"/>
        </g>
      </g>
      <g id="Group_293" data-name="Group 293" transform="translate(21.458 10.509)">
        <g id="Group_292" data-name="Group 292">
          <path id="Path_433" data-name="Path 433" d="M227.174,115.873l-2.237-7.32a.877.877,0,0,0-.888-.493.867.867,0,0,0-.877.5l-2.246,7.314a.426.426,0,0,0-.018.142c0,.367.459.623.871.623a.5.5,0,0,0,.539-.34l.437-1.512h2.6l.437,1.515a.5.5,0,0,0,.527.337c.417,0,.883-.266.883-.623A.435.435,0,0,0,227.174,115.873Zm-4.086-2.3.961-3.3.961,3.3Z" transform="translate(-220.908 -108.06)" fill="#1d74ce"/>
        </g>
      </g>
      <g id="Group_295" data-name="Group 295" transform="translate(30.858 10.541)">
        <g id="Group_294" data-name="Group 294">
          <path id="Path_434" data-name="Path 434" d="M323.323,115.955l-1.917-3.28,1.862-3.258a.744.744,0,0,0,.106-.355c0-.394-.459-.668-.871-.668a.624.624,0,0,0-.562.4l-1.469,2.687-1.448-2.685a.637.637,0,0,0-.563-.406c-.418,0-.883.274-.883.668a.744.744,0,0,0,.107.356l1.861,3.257-1.921,3.287a.662.662,0,0,0-.081.294c0,.4.489.713.894.713a.6.6,0,0,0,.495-.337l1.539-2.8,1.558,2.8a.571.571,0,0,0,.485.341c.419,0,.905-.312.905-.713A.69.69,0,0,0,323.323,115.955Z" transform="translate(-317.543 -108.394)" fill="#1d74ce"/>
        </g>
      </g>
    </g>
  </g>
</svg>
