<svg xmlns="http://www.w3.org/2000/svg" width="50" height="50.172" viewBox="0 0 50 50.172">
  <g id="ic-technology" transform="translate(-761 -210.828)">
    <rect id="Rectangle_187" data-name="Rectangle 187" width="50" height="50" transform="translate(761 211)" fill="none"/>
    <g id="Group_299" data-name="Group 299" transform="translate(-88.935 -252.172)">
      <path id="Path_438" data-name="Path 438" d="M866.838,573.028c-.457-.482-.95-.968-.616-1.708s1.011-.73,1.7-.724c1.883.016,3.765.005,5.724.005v-4.1h-1.2q-6.887,0-13.774,0c-1.951,0-2.738-.792-2.739-2.745q-.005-10.14,0-20.28c0-1.923.807-2.725,2.758-2.735,2.259-.011,4.517,0,6.776-.007.859,0,1.611.139,1.608,1.191,0,1.029-.756,1.237-1.6,1.24-2.323.009-4.646,0-7.024,0v20.856h32.989V543.167h-2.956c-1.444,0-2.889.025-4.332-.017-.791-.023-1.362-.4-1.331-1.283.03-.83.578-1.126,1.341-1.127,2.481,0,4.962-.023,7.442.011a2.23,2.23,0,0,1,2.345,2.366c.029,2.046.009,4.092.01,6.139q0,7.29,0,14.58c0,1.847-.832,2.661-2.714,2.664q-6.887.01-13.774,0h-1.241v4.1h4.833a3.42,3.42,0,0,1,.994.017c.554.177,1.412.355,1.524.719.145.468-.32,1.119-.522,1.691Z" transform="translate(0 -60.028)" fill="#2b446c"/>
      <path id="Path_439" data-name="Path 439" d="M930.06,463c1.38.63,2.509,1.48,2.638,3.148a3.419,3.419,0,1,1-4.832-2.812c.222-.107.439-.224.659-.336Zm.664,3.417c-.69-.456-1.1-.934-1.478-.913-.329.018-.917.657-.867.925a1.458,1.458,0,0,0,.974.946C929.653,467.43,930.06,466.908,930.724,466.417Z" transform="translate(-54.343)" fill="#1d74ce"/>
      <path id="Path_440" data-name="Path 440" d="M878.882,505.033q0,3.89,0,7.781c0,.256-.006.511,0,.767.017.816-.352,1.4-1.177,1.417s-1.211-.561-1.207-1.381c0-.8,0-1.607,0-2.411q0-6.849,0-13.7c0-1.9-.274-2.135-2.118-2.19a2.384,2.384,0,0,0-2.353,1.044,3.28,3.28,0,0,1-4.935.147,3.424,3.424,0,0,1,.227-5.051,3.347,3.347,0,0,1,4.918.6,1.712,1.712,0,0,0,1.779.851,8.939,8.939,0,0,1,2.072.088,3.646,3.646,0,0,1,2.79,3.822C878.9,499.553,878.882,502.293,878.882,505.033Zm-9.322-12.326c-.486.619-1.039,1.032-.98,1.318.083.4.62.715.963,1.066.315-.333.841-.642.884-1.008C870.468,493.746,869.99,493.347,869.56,492.706Z" transform="translate(-7.923 -21.587)" fill="#1d74ce"/>
      <path id="Path_441" data-name="Path 441" d="M958.542,504.975c0-2.7-.013-5.4,0-8.1.016-2.563,1.457-3.978,4.017-3.989a5.6,5.6,0,0,0,1.308-.023,2.009,2.009,0,0,0,1.093-.611,3.45,3.45,0,0,1,6.373,1.817,3.443,3.443,0,0,1-2.445,3.271,3.4,3.4,0,0,1-3.917-1.416,2.014,2.014,0,0,0-1.11-.578,5.507,5.507,0,0,0-1.309-.021c-1.211.017-1.625.414-1.632,1.658-.016,2.628,0,5.257-.005,7.885,0,2.884.009,5.768-.008,8.651-.006.989-.575,1.584-1.348,1.449-.869-.152-1.028-.792-1.025-1.556C958.549,510.6,958.542,507.786,958.542,504.975Zm9.353-12.286c-.445.632-.931,1.019-.9,1.358.035.367.552.688.858,1.029.352-.343.9-.64.991-1.043C968.912,493.748,968.368,493.321,967.9,492.689Z" transform="translate(-79.602 -21.573)" fill="#1d74ce"/>
      <path id="Path_442" data-name="Path 442" d="M937.062,507.874c-.316-.471-.821-.912-.9-1.421-.111-.69.448-1.14,1.146-1.139.749,0,1.307.463,1.176,1.218-.084.483-.58.9-.891,1.339Z" transform="translate(-62.369 -32.904)" fill="#2b446c"/>
      <path id="Path_443" data-name="Path 443" d="M938.646,528.6c-.439.334-.837.841-1.328.96-.7.17-1.191-.344-1.254-1.05a1.063,1.063,0,0,1,1.16-1.27c.489.047.933.566,1.4.874Z" transform="translate(-62.3 -49.949)" fill="#2b446c"/>
      <path id="Path_444" data-name="Path 444" d="M937.235,551.859c-.318-.479-.9-.972-.874-1.432a1.128,1.128,0,0,1,2.253-.02c.032.461-.54.963-.849,1.447Z" transform="translate(-62.538 -67.145)" fill="#2b446c"/>
      <path id="Path_445" data-name="Path 445" d="M936.9,570.733c1.137.057,1.586.47,1.6,1.23a1.1,1.1,0,0,1-1.153,1.179c-.732.015-1.317-.439-1.2-1.2C936.218,571.458,936.7,571.035,936.9,570.733Z" transform="translate(-62.358 -83.776)" fill="#2b446c"/>
      <path id="Path_446" data-name="Path 446" d="M937.574,591.9c.311.449.8.867.889,1.356.125.707-.42,1.169-1.125,1.181-.759.014-1.33-.45-1.2-1.214.083-.482.6-.889.926-1.329Z" transform="translate(-62.351 -100.231)" fill="#2b446c"/>
      <path id="Path_447" data-name="Path 447" d="M937.1,617.122c-.339-.429-.879-.819-.971-1.3-.143-.742.381-1.241,1.162-1.238.709,0,1.261.433,1.159,1.141-.07.49-.549.921-.846,1.378Z" transform="translate(-62.342 -117.879)" fill="#2b446c"/>
    </g>
  </g>
</svg>
