<svg xmlns="http://www.w3.org/2000/svg" width="64" height="64" viewBox="0 0 64 64">
  <g id="ic-facebook" transform="translate(-833 -3247)">
    <circle id="Ellipse_34" data-name="Ellipse 34" cx="32" cy="32" r="32" transform="translate(833 3247)" fill="#3b5999"/>
    <path id="Path_498" data-name="Path 498" d="M952.031,736.448c-1.055,0-2.082,0-3.109,0a1.252,1.252,0,0,0-1.415,1.4c-.007.927,0,1.854,0,2.781,0,.075.011.151.019.255h4.609l-.53,5.163h-4.09v14.592h-6.068V746.059h-2.881V740.9h2.868c0-.162,0-.29,0-.417.012-1.217-.043-2.439.052-3.65a5.5,5.5,0,0,1,2.651-4.592,5.98,5.98,0,0,1,3.008-.8c1.574-.029,3.149,0,4.724,0a1.317,1.317,0,0,1,.162.02Z" transform="translate(-80.564 2532.577)" fill="#fff"/>
  </g>
</svg>
