<svg xmlns="http://www.w3.org/2000/svg" width="64" height="64" viewBox="0 0 64 64">
  <g id="ic-linkedin" transform="translate(-582 -3247)">
    <circle id="Ellipse_33" data-name="Ellipse 33" cx="32" cy="32" r="32" transform="translate(582 3247)" fill="#0077b5"/>
    <g id="Group_329" data-name="Group 329" transform="translate(-572.719 2510.011)">
      <path id="Path_495" data-name="Path 495" d="M1218.736,789.784a6.339,6.339,0,0,1,4.659-1.71,6.862,6.862,0,0,1,2.954.706,5.11,5.11,0,0,1,2.707,3.932,13.07,13.07,0,0,1,.25,2.356c.047,3.047.053,6.094.07,9.141.005.888-.107,1-1.007,1-1.321,0-2.642,0-3.963,0-.72-.005-.825-.116-.826-.839,0-2.536,0-5.072-.006-7.609a13.3,13.3,0,0,0-.091-1.474c-.151-1.305-.779-1.945-1.909-1.976a2.158,2.158,0,0,0-2.528,1.913,15.423,15.423,0,0,0-.139,2.105c-.017,2.289-.007,4.579-.007,6.869,0,.866-.152,1.019-1.006,1.019h-3.8c-.827,0-.97-.136-.97-.938q0-7.424,0-14.848c0-.808.144-.947.957-.947h3.646c.834,0,.971.136.99.977C1218.713,789.526,1218.721,789.6,1218.736,789.784Z" transform="translate(-28.964 -25.623)" fill="#fff"/>
      <path id="Path_496" data-name="Path 496" d="M1177.477,798.219q0-3.7,0-7.4c0-.811.147-.958.95-.958q1.982,0,3.963,0c.652,0,.865.2.865.842q.008,7.53,0,15.061c0,.624-.206.824-.828.827q-2.034.012-4.069,0c-.73,0-.883-.169-.883-.921Q1177.474,801.945,1177.477,798.219Z" transform="translate(-1.361 -27.007)" fill="#fff"/>
      <path id="Path_497" data-name="Path 497" d="M1182.286,758.26a3.238,3.238,0,0,1-3.322,3.3,3.314,3.314,0,0,1-3.245-3.291,3.256,3.256,0,0,1,3.293-3.276A3.2,3.2,0,0,1,1182.286,758.26Z" fill="#fff"/>
    </g>
  </g>
</svg>
