<svg xmlns="http://www.w3.org/2000/svg" width="64" height="64" viewBox="0 0 64 64">
  <g id="ic-twitter" transform="translate(-210 -3234)">
    <circle id="Ellipse_32" data-name="Ellipse 32" cx="32" cy="32" r="32" transform="translate(210 3234)" fill="#33ccfd"/>
    <path id="Twitter" d="M33.436,13.2a12.19,12.19,0,0,1-3.519.964,6.137,6.137,0,0,0,2.694-3.39,12.264,12.264,0,0,1-3.89,1.488,6.132,6.132,0,0,0-10.439,5.588,17.4,17.4,0,0,1-12.628-6.4,6.134,6.134,0,0,0,1.9,8.18,6.109,6.109,0,0,1-2.775-.767c0,.025,0,.052,0,.078a6.131,6.131,0,0,0,4.915,6.007,6.16,6.16,0,0,1-1.614.215,6.069,6.069,0,0,1-1.153-.11A6.133,6.133,0,0,0,12.644,29.3a12.362,12.362,0,0,1-9.07,2.537,17.337,17.337,0,0,0,9.391,2.753c11.269,0,17.431-9.335,17.431-17.431q0-.4-.017-.793A12.409,12.409,0,0,0,33.436,13.2Z" transform="translate(223.426 3243.674)" fill="#fff"/>
  </g>
</svg>
