<svg xmlns="http://www.w3.org/2000/svg" width="64" height="64" viewBox="0 0 64 64">
  <g id="ic-wechat" transform="translate(-1077 -3247)">
    <circle id="Ellipse_35" data-name="Ellipse 35" cx="32" cy="32" r="32" transform="translate(1077 3247)" fill="#2cb34c"/>
    <g id="wechat" transform="translate(-24.135 2588.563)">
      <path id="Path_499" data-name="Path 499" d="M1181.047,729.672c-.056.281-.107.563-.168.843a6.429,6.429,0,0,1-1.124,2.471,1,1,0,0,0-.212.768c.129,1.11.237,2.222.353,3.333,0,.036,0,.072,0,.155-.1-.04-.182-.069-.262-.1-1-.432-1.995-.871-3-1.291a.677.677,0,0,0-.467-.008,10.1,10.1,0,0,1-8.969-.44,7.362,7.362,0,0,1-3.78-4.6,6.31,6.31,0,0,1,.523-4.791,8.184,8.184,0,0,1,4.847-3.97,10.038,10.038,0,0,1,7.413.3,7.815,7.815,0,0,1,4.377,4.351,12.5,12.5,0,0,1,.417,1.644c.022.088.033.179.049.268Zm-5.937-5.194a1.271,1.271,0,1,0,1.285,1.274A1.291,1.291,0,0,0,1175.11,724.478Zm-4.745,1.283a1.265,1.265,0,1,0-1.263,1.261A1.277,1.277,0,0,0,1170.365,725.76Z" transform="translate(-33.154 -33.297)" fill="#fff"/>
      <path id="Path_500" data-name="Path 500" d="M1142.852,687.83c-.706-.166-1.385-.374-2.08-.481a10.778,10.778,0,0,0-8.061,1.767,8.062,8.062,0,0,0-3.633,5.808,13.486,13.486,0,0,0,.05,2.058c0,.083.023.164.043.3a10.1,10.1,0,0,1-1.1-.2c-.819-.243-1.625-.528-2.442-.78a.689.689,0,0,0-.437.005c-1.371.581-2.735,1.176-4.1,1.768-.093.04-.187.078-.329.137.051-.514.1-.99.146-1.465.12-1.158.25-2.315.355-3.474a.762.762,0,0,0-.149-.476,9.087,9.087,0,0,1-1.7-3.817,8.4,8.4,0,0,1,.882-5.655,11.084,11.084,0,0,1,6.532-5.266,13.132,13.132,0,0,1,5.4-.625,12.238,12.238,0,0,1,7.883,3.537,8.829,8.829,0,0,1,2.754,6.728C1142.859,687.742,1142.854,687.788,1142.852,687.83Zm-14.088-4.814a1.676,1.676,0,1,0-1.678,1.668A1.686,1.686,0,0,0,1128.763,683.016Zm7.954,0a1.673,1.673,0,0,0-1.656-1.683,1.676,1.676,0,1,0-.014,3.353A1.675,1.675,0,0,0,1136.718,683.014Z" fill="#fff"/>
    </g>
  </g>
</svg>
